<?xml version="1.0" encoding="UTF-8" standalone="no"?>
<!-- Created with Inkscape (http://www.inkscape.org/) -->
<svg
   xmlns:svg="http://www.w3.org/2000/svg"
   xmlns="http://www.w3.org/2000/svg"
   version="1.0"
   width="513.63818"
   height="257.38525"
   viewBox="0 0 513.63818 257.38525"
   id="svg2"
   xml:space="preserve"><defs
   id="defs18" />
	
		<g
   id="Ebene_1">
			<g
   id="g7">
				<path
   d="M 128.64893,257.38525 L 385.28663,257.38525 C 456.17237,257.38525 513.63819,199.70947 513.63819,128.01611 C 513.63818,58.01318 456.17236,0 385.28662,0 L 128.64892,0 C 57.46875,0 0,58.01318 0,128.01611 C 0,199.70947 57.46875,257.38525 128.64893,257.38525 z "
   style="fill:#005f27"
   id="path9" />
				<path
   d="M 128.24756,42.47461 C 139.96094,42.47461 153.10547,44.41553 166.26807,48.72217 L 165.40528,75.40674 C 153.6709,70.25781 143.95997,67.72412 133.38575,67.72412 C 118.55763,67.72412 108.53175,75.74414 108.53175,89.76123 C 108.53175,120.16406 175.11671,112.9834 175.11671,166.35254 C 175.11671,195.40283 152.23829,219.21729 115.39552,219.21729 C 102.79835,219.21729 90.49855,217.44385 75.96339,211.70264 L 77.6465,182.39698 C 89.38088,188.73194 101.07228,191.60206 112.80666,191.60206 C 129.10988,191.60206 139.39162,182.73487 139.39162,168.97315 C 139.39162,133.6753 73.37111,146.59424 73.37111,91.78858 C 73.37109,63.33105 94.52344,42.47461 128.24756,42.47461 z "
   style="fill:#ffffff"
   id="path11" />
				<path
   d="M 254.00537,189.9126 L 318.04541,189.9126 L 318.04541,217.44385 L 219.41943,217.44385 L 219.41943,189.06885 C 259.44189,149.12793 281.45752,119.3169 281.45752,93.47949 C 281.45752,78.61474 271.44775,69.41064 258.60107,69.41064 C 245.43408,69.41064 233.44873,74.56396 225.71777,79.71337 L 222.30517,52.18505 C 235.42871,45.60058 251.9873,42.4746 266.01611,42.4746 C 298.62353,42.4746 315.18115,59.86864 315.18115,87.48339 C 315.18115,131.89893 276.021,168.04346 254.00537,189.9126 z "
   style="fill:#ffffff;fill-rule:evenodd"
   id="path13" />
				<path
   d="M 447.78076,159.07275 C 447.78076,193.5122 422.40478,218.48681 386.08838,218.48681 C 372.65088,218.48681 360.04639,216.1831 348.35693,211.02587 L 350.36181,184.04247 C 363.80419,189.78368 371.81786,191.7954 381.24951,191.7954 C 401.20263,191.7954 414.39111,179.43505 414.39111,159.66015 C 414.39111,141.30566 400.9497,128.9497 378.65966,128.9497 C 369.47997,128.9497 360.62743,130.4121 351.53271,133.28271 L 351.53271,44.28955 L 439.26709,44.28955 L 439.26709,71.02393 L 380.33154,71.02393 L 380.33154,106.29981 C 386.08838,104.87549 391.85009,104.5835 397.52588,104.5835 C 427.49561,104.5835 447.78076,126.37061 447.78076,159.07275 L 447.78076,159.07275 z "
   style="fill:#ffffff;fill-rule:evenodd"
   id="path15" />
			</g>
		</g>
	</svg>