<?xml version="1.0" encoding="UTF-8" standalone="no"?>
<!-- Created with Inkscape (http://www.inkscape.org/) -->
<svg
   xmlns:svg="http://www.w3.org/2000/svg"
   xmlns="http://www.w3.org/2000/svg"
   version="1.0"
   width="513.6377"
   height="257.38477"
   viewBox="0 0 513.6377 257.38477"
   id="svg2"
   xml:space="preserve"><defs
   id="defs16" />
	
		<g
   id="Ebene_1">
			<g
   id="g7">
				<path
   d="M 128.63184,257.38477 L 385.28125,257.38477 C 456.16602,257.38477 513.6377,199.70411 513.6377,127.9834 C 513.6377,57.9751 456.16602,0 385.28125,0 L 128.63184,0 C 57.42822,0 0,57.9751 0,127.9834 C 0,199.7041 57.42822,257.38477 128.63184,257.38477 z "
   style="fill:#ff5900"
   id="path9" />
				<path
   d="M 216.0752,36.4375 L 212.66358,67.13721 C 203.521,62.5542 187.51026,59.09473 174.34327,59.09473 C 161.74513,59.09473 145.18604,65.10889 145.18604,83.47754 C 145.18604,117.64063 227.24122,104.15039 227.24122,166.98047 C 227.24122,202.00391 198.38282,224.09082 157.21876,224.09082 C 136.34181,224.09082 127.19581,221.51367 108.91114,217.22852 L 112.30274,183.36426 C 124.03809,190.24805 140.61719,193.96094 154.94141,193.96094 C 168.90674,193.96094 188.37354,186.78321 188.37354,169.87305 C 188.37354,134.29639 105.75293,148.90674 105.75293,86.94092 C 105.75293,52.48389 130.90625,29.55762 171.5,29.55762 C 187.51025,29.55762 202.95117,31.85889 216.0752,36.4375 z "
   style="fill:#ffffff"
   id="path11" />
				<path
   d="M 401.29199,33.27246 L 401.29199,61.11865 L 329.28418,61.11865 L 328.12891,101.29638 C 332.12793,100.43066 337.86231,99.5664 345.27442,99.5664 C 371.56544,99.5664 405.86133,111.32812 405.86133,160.09716 C 405.86133,195.99023 380.70801,224.09081 332.99512,224.09081 C 318.417,224.09081 301.28907,222.10546 288.69043,219.5078 L 290.10156,185.09374 C 298.99316,188.81249 311.84179,194.82616 328.1289,194.82616 C 348.13867,194.82616 367.85937,185.91991 367.85937,161.53221 C 367.85937,136.89451 347.00488,129.39696 325.26367,129.39696 C 313.84472,129.39696 303.01465,130.56005 291.53418,133.72557 L 293.26367,33.27245 L 401.29199,33.27245 L 401.29199,33.27246 z "
   style="fill:#ffffff"
   id="path13" />
			</g>
		</g>
	</svg>