<?xml version="1.0" encoding="UTF-8" standalone="no"?>
<!-- Created with Inkscape (http://www.inkscape.org/) -->
<svg
   xmlns:svg="http://www.w3.org/2000/svg"
   xmlns="http://www.w3.org/2000/svg"
   version="1.0"
   width="513.63818"
   height="257.38525"
   viewBox="0 0 513.63818 257.38525"
   id="svg2"
   xml:space="preserve"><defs
   id="defs16" />
	
		<g
   id="Ebene_1">
			<g
   id="g7">
				<path
   d="M 128.62842,257.38525 L 385.28174,257.38525 C 456.16651,257.38525 513.63819,199.71337 513.63819,127.9331 C 513.63818,57.93115 456.1665,0 385.28174,0 L 128.62842,0 C 57.42432,0 0,57.93115 0,127.93311 C 0,199.71338 57.42432,257.38525 128.62842,257.38525 z "
   style="fill:#de4da4"
   id="path9" />
				<path
   d="M 215.21338,36.39502 L 211.80078,67.13135 C 202.65478,62.57373 186.64795,59.11084 173.48047,59.11084 C 160.94727,59.11084 144.32471,65.10791 144.32471,83.51758 C 144.32471,117.63037 226.37842,104.11963 226.37842,166.94483 C 226.37842,201.99073 197.51563,224.11573 156.35254,224.11573 C 135.47559,224.11573 126.3335,221.49952 108.04834,217.18995 L 111.44043,183.32667 C 123.19629,190.25343 139.75098,193.96729 154.0791,193.96729 C 168.04443,193.96729 187.51123,186.78956 187.51123,169.81592 C 187.51123,134.26709 104.88623,148.87696 104.88623,86.97656 C 104.88623,52.43994 130.03906,29.55566 170.63818,29.55566 C 186.64795,29.55566 202.08887,31.83447 215.21338,36.39502 z "
   style="fill:#ffffff"
   id="path11" />
				<polygon
   points="290.10205,76.59131 344.97998,33.01904 377.60986,33.01904 377.60986,221.15771 340.40771,221.15771 340.40771,75.41064 308.99951,101.58594 290.10205,76.59131 "
   style="fill:#ffffff"
   id="polygon13" />
			</g>
		</g>
	</svg>