<?xml version="1.0" encoding="UTF-8" standalone="no"?>
<!-- Created with Inkscape (http://www.inkscape.org/) -->
<svg
   xmlns:svg="http://www.w3.org/2000/svg"
   xmlns="http://www.w3.org/2000/svg"
   version="1.0"
   width="513.6377"
   height="257.38525"
   viewBox="0 0 513.6377 257.38525"
   id="svg2"
   xml:space="preserve"><defs
   id="defs18" />
	
		<g
   id="Ebene_1">
			<g
   id="g7">
				<path
   d="M 128.66211,257.38525 L 385.3125,257.38525 C 456.1748,257.38525 513.6377,199.70947 513.6377,127.97216 C 513.6377,57.97021 456.1748,0 385.3125,0 L 128.66211,0 C 57.54932,0 0,57.97021 0,127.97217 C 0,199.70947 57.54932,257.38525 128.66211,257.38525 z "
   style="fill:#a23b1e"
   id="path9" />
				<path
   d="M 175.67578,162.6167 C 175.67578,191.58057 152.84228,215.35108 115.93994,215.35108 C 103.2998,215.35108 91,213.62159 76.42334,207.91846 L 78.10596,178.64014 C 89.90528,184.97315 101.61231,187.86573 113.3252,187.86573 C 129.6709,187.86573 139.86963,178.95557 139.86963,165.21534 C 139.86963,129.95655 73.89453,142.81544 73.89453,88.0752 C 73.89453,59.69922 95.04297,38.77784 128.74805,38.77784 C 140.54297,38.77784 153.68799,40.82716 166.83203,45.09034 L 165.98633,71.73194 C 154.19238,66.58301 144.50293,63.98389 133.88623,63.98389 C 119.0542,63.98389 109.0293,72.02979 109.0293,86.09034 C 109.0293,116.48877 175.67578,109.31201 175.67578,162.6167 z "
   style="fill:#ffffff"
   id="path11" />
				<polygon
   points="425.9248,213.62158 392.72949,213.62158 392.72949,78.91309 370.48535,101.56396 354.47656,78.04395 398.45801,41.37598 425.9248,41.37598 425.9248,213.62158 "
   style="fill:#ffffff"
   id="polygon13" />
				<path
   d="M 281.75781,154.00439 L 281.75781,73.75977 L 239.46338,154.0044 L 281.75781,154.0044 L 281.75781,154.00439 z M 329.87305,177.83545 L 310.15332,177.83545 L 310.15332,213.62158 L 280.66309,213.62158 L 280.66309,177.83545 L 215.11133,177.83545 L 215.11133,147.6919 L 274.59668,41.37598 L 310.15332,41.37598 L 310.15332,154.0044 L 329.87305,154.0044 L 329.87305,177.83545 L 329.87305,177.83545 z "
   style="fill:#ffffff;fill-rule:evenodd"
   id="path15" />
			</g>
		</g>
	</svg>