<?xml version="1.0" encoding="UTF-8" standalone="no"?>
<!-- Created with Inkscape (http://www.inkscape.org/) -->
<svg
   xmlns:svg="http://www.w3.org/2000/svg"
   xmlns="http://www.w3.org/2000/svg"
   version="1.0"
   width="513.6377"
   height="257.38525"
   viewBox="0 0 513.6377 257.38525"
   id="svg2"
   xml:space="preserve"><defs
   id="defs16" />
	
		<g
   id="Ebene_1">
			<g
   id="g7">
				<path
   d="M 128.61328,257.38525 L 385.27539,257.38525 C 456.16699,257.38525 513.63769,199.71045 513.63769,128.01806 C 513.6377,57.93066 456.16699,0 385.27539,0 L 128.61328,0 C 57.42725,0 0,57.93066 0,128.01807 C 0,199.71045 57.42725,257.38525 128.61328,257.38525 z "
   style="fill:#6f4e9c"
   id="path9" />
				<path
   d="M 216.06543,36.48145 L 212.65234,67.13477 C 203.50976,62.48682 187.49902,59.11084 174.35254,59.11084 C 161.75342,59.11084 145.17285,65.10791 145.17285,83.5166 C 145.17285,117.62939 227.20996,104.11767 227.20996,166.94775 C 227.20996,201.98877 198.38867,224.11181 157.17969,224.11181 C 136.34473,224.11181 127.20215,221.4956 108.89551,217.18993 L 112.30811,183.3286 C 124.04395,190.25048 140.59913,193.96922 154.88477,193.96922 C 168.91553,193.96922 188.38282,186.78758 188.38282,169.89988 C 188.38282,134.2656 105.7544,148.87449 105.7544,86.97556 C 105.7544,52.52634 130.9087,29.55515 171.50879,29.55515 C 187.49902,29.55518 202.9624,31.83838 216.06543,36.48145 z "
   style="fill:#ffffff"
   id="path11" />
				<polygon
   points="281.81543,61.98096 281.81543,33.01855 403.01562,33.01855 403.01562,63.67236 336.44238,221.15869 295.2334,221.15869 365.00879,61.98096 281.81543,61.98096 "
   style="fill:#ffffff"
   id="polygon13" />
			</g>
		</g>
	</svg>