<?xml version="1.0" encoding="UTF-8" standalone="no"?>
<!-- Created with Inkscape (http://www.inkscape.org/) -->
<svg
   xmlns:svg="http://www.w3.org/2000/svg"
   xmlns="http://www.w3.org/2000/svg"
   version="1.0"
   width="513.6377"
   height="257.38574"
   viewBox="0 0 513.6377 257.38574"
   id="svg2"
   xml:space="preserve"><defs
   id="defs18" />
	
		<g
   id="Ebene_1">
			<g
   id="g7">
				<path
   d="M 128.60205,257.38574 L 385.29004,257.38574 C 456.17285,257.38574 513.6377,199.70996 513.6377,128.0166 C 513.6377,58.01367 456.17285,0 385.29004,0 L 128.60205,0 C 57.46582,0 0,58.01367 0,128.0166 C 0,199.70996 57.46582,257.38574 128.60205,257.38574 z "
   style="fill:#6f4e9c"
   id="path9" />
				<path
   d="M 126.30713,40.27832 C 137.99854,40.27832 151.16602,42.21973 164.33203,46.52588 L 163.44824,73.21094 C 151.73535,68.06153 142.02344,65.52783 131.45019,65.52783 C 116.5957,65.52783 106.59081,73.54785 106.59081,87.56982 C 106.59081,117.96826 173.16015,110.79101 173.16015,164.24316 C 173.16015,193.20703 150.30273,217.0205 113.45898,217.0205 C 100.8623,217.0205 88.55761,215.24902 73.97949,209.50683 L 75.70996,180.28808 C 87.44043,186.53613 99.13184,189.49316 110.86621,189.49316 C 127.13086,189.49316 137.45117,180.53808 137.45117,166.77636 C 137.45117,131.47948 71.43017,144.39794 71.43017,89.59277 C 71.43018,61.22168 92.58301,40.27832 126.30713,40.27832 z "
   style="fill:#ffffff"
   id="path11" />
				<polygon
   points="219.18799,42.8125 318.06543,42.8125 318.06543,71.77539 266.64844,215.24902 230.33154,215.24902 285.81641,69.49707 219.18799,69.49707 219.18799,42.8125 "
   style="fill:#ffffff"
   id="polygon13" />
				<path
   d="M 351.51758,42.8125 L 439.25586,42.8125 L 439.25586,69.49707 L 380.37988,69.49707 L 380.37988,104.79443 C 386.1084,103.35888 391.81738,103.10449 397.5459,103.10449 C 427.56445,103.10449 447.85059,124.89013 447.85059,157.57226 C 447.85059,192.02636 422.4043,217.0205 386.1084,217.0205 C 372.69238,217.0205 360.09375,214.74218 348.35938,209.50683 L 350.38282,182.5664 C 363.79981,188.30859 371.78614,190.33593 381.24317,190.33593 C 401.25684,190.33593 414.41895,177.92284 414.41895,158.16405 C 414.41895,139.75487 400.95899,127.42382 378.69336,127.42382 C 369.55176,127.42382 360.66016,128.85937 351.51758,131.8164 L 351.51758,42.8125 z "
   style="fill:#ffffff"
   id="path15" />
			</g>
		</g>
	</svg>