<?xml version="1.0" encoding="UTF-8" standalone="no"?>
<!-- Created with Inkscape (http://www.inkscape.org/) -->
<svg
   xmlns:svg="http://www.w3.org/2000/svg"
   xmlns="http://www.w3.org/2000/svg"
   version="1.0"
   width="513.6377"
   height="257.38525"
   viewBox="0 0 513.6377 257.38525"
   id="svg2"
   xml:space="preserve"><defs
   id="defs18" />
	
		<g
   id="Ebene_1">
			<g
   id="g7">
				<path
   d="M 128.5791,257.38525 L 385.31445,257.38525 C 456.17578,257.38525 513.63769,199.70947 513.63769,127.97216 C 513.6377,57.97021 456.17578,0 385.31445,0 L 128.5791,0 C 57.4668,0 0,57.97021 0,127.97217 C 0,199.70947 57.4668,257.38525 128.5791,257.38525 z "
   style="fill:#c38737"
   id="path9" />
				<path
   d="M 175.25635,162.6167 C 175.25635,191.58057 152.34082,215.35108 115.43457,215.35108 C 102.88086,215.35108 90.57617,213.62159 75.91748,207.91846 L 77.68652,178.68311 C 89.39941,184.97315 101.11181,187.86573 112.90625,187.86573 C 129.17041,187.86573 139.4502,178.95557 139.4502,165.21534 C 139.4502,129.91358 73.39014,142.85792 73.39014,88.0752 C 73.39014,59.69922 94.62305,38.77784 128.32422,38.77784 C 140.03613,38.77784 153.18164,40.7837 166.41309,45.09034 L 165.48536,71.73194 C 153.77247,66.58301 143.99708,63.98389 133.46681,63.98389 C 118.63478,63.98389 108.60939,72.02979 108.60939,86.09034 C 108.60938,116.48877 175.25635,109.31201 175.25635,162.6167 z "
   style="fill:#ffffff"
   id="path11" />
				<polygon
   points="448.42383,70.29639 396.60254,213.62158 360.54297,213.62158 415.73145,68.01807 349.08008,68.01807 349.08008,41.37598 448.42383,41.37598 448.42383,70.29639 "
   style="fill:#ffffff"
   id="polygon13" />
				<path
   d="M 329.36523,177.83545 L 309.65039,177.83545 L 309.65039,213.62158 L 280.24121,213.62158 L 280.24121,177.83545 L 214.69043,177.83545 L 214.69043,147.6919 L 274.17676,41.37598 L 309.65039,41.37598 L 309.65039,154.0044 L 329.36523,154.0044 L 329.36523,177.83545 L 329.36523,177.83545 z M 281.33789,154.00439 L 281.33789,73.75977 L 239.04297,154.0044 L 281.33789,154.0044 L 281.33789,154.00439 z "
   style="fill:#ffffff;fill-rule:evenodd"
   id="path15" />
			</g>
		</g>
	</svg>