<?xml version="1.0" encoding="UTF-8" standalone="no"?>
<!-- Created with Inkscape (http://www.inkscape.org/) -->
<svg
   xmlns:svg="http://www.w3.org/2000/svg"
   xmlns="http://www.w3.org/2000/svg"
   version="1.0"
   width="513.6377"
   height="257.38574"
   viewBox="0 0 513.6377 257.38574"
   id="svg2"
   xml:space="preserve"><defs
   id="defs18" />
	
		<g
   id="Ebene_1">
			<g
   id="g7">
				<path
   d="M 128.5791,257.38574 L 385.31445,257.38574 C 456.17578,257.38574 513.63769,199.70996 513.63769,127.97265 C 513.6377,57.97021 456.17578,0 385.31445,0 L 128.5791,0 C 57.4668,0 0,57.97021 0,127.97266 C 0,199.70996 57.4668,257.38574 128.5791,257.38574 z "
   style="fill:#c38737"
   id="path9" />
				<path
   d="M 176.18457,163.94922 C 176.18457,192.91309 153.35059,216.7041 116.44775,216.7041 C 103.89062,216.7041 91.59082,215.01367 77.01416,209.25098 L 78.70068,180.03223 C 90.40918,186.34473 102.12158,189.19434 113.83398,189.19434 C 130.17968,189.19434 140.45996,180.28809 140.45996,166.54297 C 140.45996,131.31055 74.39941,144.18604 74.39941,89.46729 C 74.39941,61.05323 95.55078,40.13184 129.33789,40.13184 C 141.05078,40.13184 154.19629,42.1587 167.33545,46.44385 L 166.49414,73.10742 C 154.78174,67.93652 145.01074,65.38086 134.47656,65.38086 C 119.64941,65.38086 109.53711,73.3794 109.53711,87.41797 C 109.53711,117.82031 176.18457,110.63965 176.18457,163.94922 z "
   style="fill:#ffffff"
   id="path11" />
				<path
   d="M 282.35254,155.39697 L 282.35254,75.11328 L 240.05274,155.39697 L 282.35254,155.39697 z M 330.37598,179.16699 L 310.66114,179.16699 L 310.66114,215.01367 L 281.25587,215.01367 L 281.25587,179.16699 L 215.70069,179.16699 L 215.70069,149.08447 L 275.18555,42.72558 L 310.66114,42.72558 L 310.66114,155.39697 L 330.37598,155.39697 L 330.37598,179.16699 z "
   style="fill:#ffffff;fill-rule:evenodd"
   id="path13" />
				<path
   d="M 457.09863,157.06592 C 457.09863,194.09278 433.08691,217.31446 402.50097,217.31446 C 365.8496,217.31446 348.15331,192.61426 348.15331,143.93507 C 348.15331,70.21486 376.72069,40.4253 417.66893,40.4253 C 429.38182,40.4253 438.47948,42.1587 448.25487,44.70997 L 446.23143,71.39503 C 437.38377,67.93653 429.38182,66.20216 420.78319,66.20216 C 396.43553,66.20216 384.13182,87.7378 381.85839,115.22316 C 387.58691,108.33937 397.27636,104.62599 411.09472,104.62599 C 439.91113,104.62598 457.09863,123.51953 457.09863,157.06592 z M 424.74414,159.97998 C 424.74414,141.90771 416.23633,129.02734 403.00488,129.02734 C 390.78808,129.02734 382.19433,141.59179 382.19433,161.09521 C 382.19433,181.15332 390.45214,192.04785 403.59667,192.04785 C 416.7412,192.04785 424.74414,179.4834 424.74414,159.97998 z "
   style="fill:#ffffff;fill-rule:evenodd"
   id="path15" />
			</g>
		</g>
	</svg>