<?xml version="1.0" encoding="UTF-8" standalone="no"?>
<!-- Created with Inkscape (http://www.inkscape.org/) -->
<svg
   xmlns:svg="http://www.w3.org/2000/svg"
   xmlns="http://www.w3.org/2000/svg"
   version="1.0"
   width="513.6377"
   height="257.38525"
   viewBox="0 0 513.6377 257.38525"
   id="svg2"
   xml:space="preserve"><defs
   id="defs18" />
	
		<g
   id="Ebene_1">
			<g
   id="g7">
				<path
   d="M 128.63721,257.38525 C 57.43164,257.38525 0,199.729 0,127.98047 C 0,57.96338 57.43164,0 128.63721,0 L 385.24903,0 C 456.20703,0 513.6377,57.96338 513.6377,127.98047 C 513.6377,199.72901 456.20704,257.38526 385.24903,257.38526 L 128.63721,257.38526 L 128.63721,257.38525 z "
   style="fill:#c38737"
   id="path9" />
				<path
   d="M 450.1123,158.66992 C 450.1123,193.10986 424.7373,218.08447 388.41992,218.08447 C 374.9834,218.08447 362.37793,215.77978 350.68847,210.62256 L 352.69335,183.63916 C 366.13573,189.38135 374.1494,191.39307 383.58105,191.39307 C 403.53417,191.39307 416.72265,179.03174 416.72265,159.25733 C 416.72265,140.90284 403.28124,128.54688 380.9912,128.54688 C 371.81151,128.54688 362.95995,130.00928 353.86425,132.8794 L 353.86425,43.88721 L 441.59863,43.88721 L 441.59863,70.6211 L 382.66308,70.6211 L 382.66308,105.89698 C 388.41992,104.47266 394.18163,104.18067 399.85839,104.18067 C 429.82715,104.18066 450.1123,125.96777 450.1123,158.66992 L 450.1123,158.66992 z "
   style="fill:#ffffff;fill-rule:evenodd"
   id="path11" />
				<path
   d="M 175.46875,165.26855 C 175.46875,194.28466 152.59766,218.08447 115.69971,218.08447 C 103.17676,218.08447 90.82471,216.36377 76.29688,210.62256 L 78.04932,181.35791 C 89.73926,187.66455 101.42383,190.53467 113.19532,190.53467 C 129.47462,190.53467 139.74122,181.61084 139.74122,167.84717 C 139.74122,132.56641 73.71095,145.49317 73.71095,90.70899 C 73.71095,62.30176 94.91505,41.31299 128.63722,41.31299 C 140.32716,41.31299 153.51661,43.34229 166.62111,47.63721 L 165.7881,74.30616 C 154.0171,69.1753 144.33205,66.5962 133.813,66.5962 C 118.87111,66.5962 108.93849,74.62013 108.93849,88.6797 C 108.93848,119.11621 175.46875,111.95068 175.46875,165.26855 L 175.46875,165.26855 z "
   style="fill:#ffffff;fill-rule:evenodd"
   id="path13" />
				<path
   d="M 329.48535,180.49951 L 309.78613,180.49951 L 309.78613,216.36377 L 280.40136,216.36377 L 280.40136,180.49951 L 214.95654,180.49951 L 214.95654,150.37256 L 274.3916,43.88721 L 309.78613,43.88721 L 309.78613,156.69971 L 329.48535,156.69971 L 329.48535,180.49951 L 329.48535,180.49951 z M 281.4873,156.69971 L 281.4873,76.34082 L 239.24609,156.69971 L 281.4873,156.69971 z "
   style="fill:#ffffff;fill-rule:evenodd"
   id="path15" />
			</g>
		</g>
	</svg>