<?xml version="1.0" encoding="utf-8"?>
<!DOCTYPE svg PUBLIC "-//W3C//DTD SVG 1.1//EN" "http://www.w3.org/Graphics/SVG/1.1/DTD/svg11.dtd">
<svg version="1.1" id="svg2" xmlns:svg="http://www.w3.org/2000/svg"
	 xmlns="http://www.w3.org/2000/svg" xmlns:xlink="http://www.w3.org/1999/xlink" x="0px" y="0px" width="513.639px"
	 height="257.385px" viewBox="0 0 513.639 257.385" enable-background="new 0 0 513.639 257.385" xml:space="preserve">
<path id="path9" fill="#005F27" d="M128.649,257.385h256.638c70.886,0,128.352-57.676,128.352-129.369
	C513.638,58.013,456.173,0,385.287,0H128.649C57.469,0,0,58.013,0,128.016C0,199.709,57.469,257.385,128.649,257.385z"/>
<path id="path11" fill="#FFFFFF" d="M128.248,42.475c11.713,0,24.857,1.94,38.021,6.247l-0.863,26.685
	c-11.734-5.148-21.445-7.683-32.02-7.683c-14.828,0-24.854,8.021-24.854,22.037c0,30.403,66.585,23.223,66.585,76.592
	c0,29.05-22.879,52.864-59.722,52.864c-12.597,0-24.896-1.773-39.432-7.515l1.683-29.306c11.734,6.335,23.426,9.205,35.16,9.205
	c16.304,0,26.585-8.867,26.585-22.629c0-35.298-66.021-22.379-66.021-77.185C73.371,63.331,94.523,42.475,128.248,42.475z"/>
<path id="path13" fill="#FFFFFF" d="M254.006,189.912h64.04v27.531H219.42v-28.375c40.022-39.94,62.038-69.752,62.038-95.589
	c0-14.865-10.01-24.069-22.856-24.069c-13.167,0-25.152,5.153-32.884,10.303l-3.412-27.528c13.123-6.584,29.682-9.71,43.711-9.71
	c32.607,0,49.165,17.394,49.165,45.009C315.181,131.899,276.021,168.043,254.006,189.912z"/>
<path id="path15_1_" fill="#FFFFFF" d="M449.465,159.498c0,37.027-24.012,60.248-54.598,60.248
	c-36.65,0-54.348-24.699-54.348-73.379c0-73.72,28.568-103.509,69.516-103.509c11.713,0,20.811,1.733,30.586,4.285l-2.023,26.685
	c-8.848-3.458-16.85-5.193-25.447-5.193c-24.349,0-36.652,21.536-38.926,49.021c5.729-6.884,15.418-10.597,29.236-10.597
	C432.277,107.059,449.465,125.952,449.465,159.498z M417.111,162.412c0-18.072-8.508-30.952-21.74-30.952
	c-12.217,0-20.811,12.563-20.811,32.067c0,20.059,8.258,30.953,21.402,30.953S417.111,181.916,417.111,162.412z"/>
</svg>
