<?xml version="1.0" encoding="UTF-8" standalone="no"?>
<!-- Created with Inkscape (http://www.inkscape.org/) -->
<svg
   xmlns:svg="http://www.w3.org/2000/svg"
   xmlns="http://www.w3.org/2000/svg"
   version="1.0"
   width="513.63672"
   height="257.38525"
   viewBox="0 0 513.63672 257.38525"
   id="svg2"
   xml:space="preserve"><defs
   id="defs16" />
	
		<g
   id="Ebene_1">
			<g
   id="g7">
				<path
   d="M 128.57812,257.38525 L 385.3125,257.38525 C 456.17383,257.38525 513.63672,199.70556 513.63672,127.98584 C 513.63672,57.97852 456.17383,0 385.3125,0 L 128.57812,0 C 57.46533,0 0,57.97852 0,127.98584 C 0,199.70557 57.46533,257.38525 128.57812,257.38525 z "
   style="fill:#55a822"
   id="path9" />
				<path
   d="M 216.03564,36.44189 L 212.58447,67.14111 C 203.48144,62.55761 187.47265,59.09423 174.33203,59.09423 C 161.77441,59.09423 145.17822,65.11278 145.17822,83.48046 C 145.17822,117.63915 227.24316,104.14794 227.24316,166.9829 C 227.24316,202.00536 198.34472,224.0913 157.22754,224.0913 C 136.33057,224.0913 127.14551,221.51415 108.86328,217.18603 L 112.31836,183.36572 C 124.02637,190.24463 140.62695,193.96338 154.86719,193.96338 C 168.93946,193.96338 188.31836,186.78565 188.31836,169.87061 C 188.31836,134.29834 105.74414,148.9087 105.74414,86.94385 C 105.74414,52.4878 130.85156,29.55811 171.46338,29.55811 C 187.47266,29.55811 202.89551,31.86279 216.03564,36.44189 z "
   style="fill:#ffffff"
   id="path11" />
				<path
   d="M 340.99121,138.58398 C 326.92285,145.76123 316.89258,154.35644 316.89258,170.16845 C 316.89258,187.39501 329.19531,196.812 345.87891,196.812 C 360.11914,196.812 372.08203,187.39501 372.08203,171.85595 C 372.08203,152.92139 356.41309,144.07471 340.99121,138.58398 z M 347.81543,108.73193 C 359.27832,103.59961 368.71289,93.25732 368.71289,81.75048 C 368.71289,67.71191 360.11914,57.97851 344.44629,57.97851 C 332.39649,57.97851 319.00195,65.40722 319.00195,80.63134 C 319.00195,96.72021 335.01172,103.854 347.81543,108.73193 z M 373.51367,120.23779 C 398.45703,131.99853 409.8291,148.65332 409.8291,170.16845 C 409.8291,205.72411 382.44922,224.95654 345.8789,224.95654 C 307.20312,224.95654 278.89452,208.02392 278.89452,173.03955 C 278.89452,150.93701 290.94432,134.84814 313.52343,123.95166 C 294.90429,115.04443 282.35058,99.27148 282.35058,79.46777 C 282.35058,53.65088 305.77148,30.38427 345.54199,30.38427 C 382.11133,30.38427 405.53222,47.90429 405.53222,75.45995 C 405.53223,95.81299 391.80078,113.92529 373.51367,120.23779 z "
   style="fill:#ffffff;fill-rule:evenodd"
   id="path13" />
			</g>
		</g>
	</svg>