<?xml version="1.0" encoding="UTF-8" standalone="no"?>
<!-- Created with Inkscape (http://www.inkscape.org/) -->
<svg
   xmlns:svg="http://www.w3.org/2000/svg"
   xmlns="http://www.w3.org/2000/svg"
   version="1.0"
   width="513.63818"
   height="257.38477"
   viewBox="0 0 513.63818 257.38477"
   id="svg2"
   xml:space="preserve"><defs
   id="defs16" />
	
		<g
   id="Ebene_1">
			<g
   id="g7">
				<path
   d="M 128.61182,257.38477 L 385.31397,257.38477 C 456.20752,257.38477 513.63819,199.69336 513.63819,127.97657 C 513.63818,57.9458 456.20752,0 385.31396,0 L 128.61182,0 C 57.42627,0 0,57.9458 0,127.97656 C 0,199.69336 57.42627,257.38477 128.61182,257.38477 z "
   style="fill:#005f27"
   id="path9" />
				<path
   d="M 404.73877,221.23242 L 280.13037,221.23242 L 280.13037,189.3877 C 297.25537,172.74415 361.59424,119.35743 361.59424,84.64063 C 361.59424,67.40967 346.15088,59.04444 330.43799,59.04444 C 314.69873,59.04444 299.84717,65.97364 287.24951,74.58839 L 284.40576,43.58741 C 301.28076,34.12452 320.6831,29.81641 340.15088,29.81641 C 375.87842,29.81641 399.05225,48.146 399.05225,84.64063 C 399.05225,124.25733 358.70655,161.50831 328.12061,191.41211 L 404.73877,191.41211 L 404.73877,221.23242 z "
   style="fill:#ffffff"
   id="path11" />
				<path
   d="M 215.23975,36.40771 L 211.7876,67.15478 C 202.64551,62.50878 186.63477,59.04443 173.48828,59.04443 C 160.9331,59.04443 144.30859,65.12548 144.30859,83.45947 C 144.30859,117.67041 226.38427,104.15527 226.38427,167.00146 C 226.38427,202.05468 197.50292,224.10351 156.35937,224.10351 C 135.45947,224.10351 126.3164,221.56933 108.03173,217.26269 L 111.44482,183.38867 C 123.18017,190.23047 139.73535,193.94629 154.06445,193.94629 C 168.05078,193.94629 187.49658,186.7666 187.49658,169.87305 C 187.49658,134.30909 104.86914,148.92285 104.86914,86.91993 C 104.86914,52.45802 130.02246,29.47901 170.64502,29.47901 C 186.63477,29.479 202.07617,31.84521 215.23975,36.40771 z "
   style="fill:#ffffff"
   id="path13" />
			</g>
		</g>
	</svg>