<?xml version="1.0" encoding="UTF-8" standalone="no"?>
<!-- Created with Inkscape (http://www.inkscape.org/) -->
<svg
   xmlns:svg="http://www.w3.org/2000/svg"
   xmlns="http://www.w3.org/2000/svg"
   version="1.0"
   width="513.63672"
   height="257.38525"
   viewBox="0 0 513.63672 257.38525"
   id="svg2"
   xml:space="preserve"><defs
   id="defs16" />
	
		<g
   id="Ebene_1">
			<g
   id="g7">
				<path
   d="M 128.64014,257.38525 L 385.29102,257.38525 C 456.17383,257.38525 513.63672,199.70947 513.63672,128.01757 C 513.63672,57.93018 456.17383,0 385.29102,0 L 128.64014,0 C 57.4624,0 0,57.93018 0,128.01758 C 0,199.70947 57.4624,257.38525 128.64014,257.38525 z "
   style="fill:#8a0e30"
   id="path9" />
				<path
   d="M 216.10254,36.48096 L 212.69092,67.13477 C 203.54444,62.48682 187.53906,59.11036 174.37256,59.11036 C 161.77637,59.11036 145.21875,65.10694 145.21875,83.51661 C 145.21875,117.62891 227.22461,104.11768 227.22461,166.94581 C 227.22461,201.98878 198.40625,224.11085 157.20313,224.11085 C 136.3711,224.11085 127.2295,221.49464 108.94629,217.18995 L 112.33789,183.32765 C 124.07178,190.2505 140.64551,193.96827 154.9292,193.96827 C 168.9375,193.96827 188.40234,186.78663 188.40234,169.8169 C 188.40234,134.26514 105.78418,148.87452 105.78418,86.97559 C 105.78418,52.52588 130.93457,29.55469 171.53027,29.55469 C 187.53906,29.55469 202.97949,31.83789 216.10254,36.48096 z "
   style="fill:#ffffff"
   id="path11" />
				<path
   d="M 345.29102,126.24512 C 362.98243,126.24512 370.44141,109.60889 370.44141,90.94385 C 370.44141,73.46387 362.73243,57.33789 344.13086,57.33789 C 326.70996,57.33789 318.72949,74.56201 318.72949,91.53662 C 318.72949,109.60889 326.70996,126.24512 345.29102,126.24512 z M 291.2793,217.43994 L 296.12403,187.37939 C 305.26954,191.68408 316.13673,195.14892 328.98829,195.14892 C 361.86915,195.14892 372.44337,164.15771 373.30665,136.88085 C 363.59474,148.8745 352.15919,154.6162 336.14845,154.6162 C 300.99025,154.6162 281.55079,131.98681 281.55079,97.27782 C 281.55079,56.83202 301.24415,29.81053 344.13087,29.81053 C 396.16212,29.81053 407.89649,72.87547 407.89649,117.04002 C 407.89649,168.12742 391.2959,224.95945 330.71387,224.95945 C 316.70508,224.95947 304.15137,222.93018 291.2793,217.43994 z "
   style="fill:#ffffff;fill-rule:evenodd"
   id="path13" />
			</g>
		</g>
	</svg>