<?xml version="1.0" encoding="UTF-8" standalone="no"?>
<!-- Created with Inkscape (http://www.inkscape.org/) -->
<svg
   xmlns:svg="http://www.w3.org/2000/svg"
   xmlns="http://www.w3.org/2000/svg"
   version="1.0"
   width="513.6377"
   height="257.38477"
   viewBox="0 0 513.6377 257.38477"
   id="svg2"
   xml:space="preserve"><defs
   id="defs18" />
	
		<path
   d="M 128.66113,257.38477 L 385.22754,257.38477 C 456.1709,257.38477 513.6377,199.70899 513.6377,127.97217 C 513.6377,57.97021 456.1709,0 385.22754,0 L 128.66113,0 C 57.46289,0 0,57.97021 0,127.97217 C 0,199.70898 57.46289,257.38477 128.66113,257.38477 z"
   id="path9"
   style="fill:#c26a36;fill-opacity:1" /><path
   d="M 175.59277,162.61719 C 175.59277,191.58008 152.75879,215.35157 115.85742,215.35157 C 103.21728,215.35157 91,213.6211 76.42285,207.91895 L 78.10986,178.64063 C 89.81738,184.97461 101.53027,187.86719 113.24316,187.86719 C 129.58886,187.86719 139.86914,178.95508 139.86914,165.21582 C 139.86914,129.95703 73.81299,142.81445 73.81299,88.07471 C 73.81299,59.69922 94.96045,38.77832 128.74805,38.77832 C 140.45996,38.77832 153.60498,40.82715 166.74512,45.09082 L 165.9043,71.73193 C 154.19141,66.58252 144.42041,63.98388 133.88477,63.98388 C 118.97168,63.98388 109.03272,72.02978 109.03272,86.09033 C 109.03271,116.48926 175.59277,109.31201 175.59277,162.61719 z"
   id="path11"
   style="fill:#ffffff" /><path
   d="M 446.81934,213.62109 L 348.07129,213.62109 L 348.07129,185.26757 C 388.17871,145.41015 410.16699,115.60253 410.16699,89.8037 C 410.16699,74.87938 400.1416,65.71727 387.33301,65.71727 C 374.10645,65.71727 362.05762,70.86717 354.3916,76.05956 L 350.93555,48.51073 C 364.16211,41.94677 380.67676,38.77831 394.74903,38.77831 C 427.35841,38.77831 443.95411,56.25829 443.95411,83.79003 C 443.95411,128.22753 404.69337,164.34667 382.7002,186.1328 L 446.81934,186.1328 L 446.81934,213.62109 L 446.81934,213.62109 z"
   id="path13"
   style="fill:#ffffff;fill-rule:evenodd" /><path
   d="M 281.76074,154.00391 L 281.76074,73.75977 L 239.37549,154.00391 L 281.76074,154.00391 L 281.76074,154.00391 z M 329.78418,177.83594 L 310.06934,177.83594 L 310.06934,213.6211 L 280.5791,213.6211 L 280.5791,177.83594 L 215.10889,177.83594 L 215.10889,147.69141 L 274.5957,41.37598 L 310.06933,41.37598 L 310.06933,154.00391 L 329.78417,154.00391 L 329.78417,177.83594 L 329.78418,177.83594 z"
   id="path15"
   style="fill:#ffffff;fill-rule:evenodd" />
	</svg>