<?xml version="1.0" encoding="UTF-8" standalone="no"?>
<!-- Created with Inkscape (http://www.inkscape.org/) -->
<svg
   xmlns:svg="http://www.w3.org/2000/svg"
   xmlns="http://www.w3.org/2000/svg"
   version="1.0"
   width="513.63672"
   height="257.38477"
   viewBox="0 0 513.63672 257.38477"
   id="svg2"
   xml:space="preserve"><defs
   id="defs18" />
	
		<g
   id="Ebene_1">
			<g
   id="g7">
				<path
   d="M 128.63672,257.38477 C 57.43066,257.38477 0,199.72949 0,127.98047 C 0,57.96338 57.43066,0 128.63672,0 L 385.24805,0 C 456.20606,0 513.63672,57.96338 513.63672,127.98047 C 513.63672,199.72949 456.20606,257.38477 385.24805,257.38477 L 128.63672,257.38477 z "
   style="fill:#55a822"
   id="path9" />
				<path
   d="M 450.11133,158.66992 C 450.11133,193.10937 424.73633,218.08398 388.41992,218.08398 C 374.98242,218.08398 362.37793,215.78027 350.68847,210.62304 L 352.69238,183.63964 C 366.13476,189.38085 374.14941,191.39257 383.58008,191.39257 C 403.5332,191.39257 416.72266,179.03222 416.72266,159.25732 C 416.72266,140.90283 403.28028,128.54687 380.99121,128.54687 C 371.81055,128.54687 362.95898,130.00927 353.86328,132.87988 L 353.86328,43.88672 L 441.59766,43.88672 L 441.59766,70.6211 L 382.66211,70.6211 L 382.66211,105.89698 C 388.41992,104.47266 394.18066,104.18067 399.85742,104.18067 C 429.82617,104.18066 450.11133,125.96777 450.11133,158.66992 L 450.11133,158.66992 z "
   style="fill:#ffffff;fill-rule:evenodd"
   id="path11" />
				<path
   d="M 175.46777,165.26855 C 175.46777,194.28515 152.59765,218.08398 115.69922,218.08398 C 103.17578,218.08398 90.82373,216.36328 76.2959,210.62304 L 78.04883,181.35742 C 89.73828,187.66504 101.42334,190.53515 113.19434,190.53515 C 129.47413,190.53515 139.74024,181.61132 139.74024,167.84765 C 139.74024,132.5664 73.70997,145.49316 73.70997,90.70898 C 73.70997,62.30175 94.91456,41.31298 128.63673,41.31298 C 140.32618,41.31298 153.51564,43.34277 166.62062,47.63671 L 165.78712,74.30663 C 154.01612,69.17528 144.33107,66.59667 133.81202,66.59667 C 118.87013,66.59667 108.93751,74.62011 108.93751,88.67968 C 108.9375,119.11621 175.46777,111.95068 175.46777,165.26855 L 175.46777,165.26855 z "
   style="fill:#ffffff;fill-rule:evenodd"
   id="path13" />
				<path
   d="M 265.56641,139.35547 C 252.74317,145.89795 243.60059,153.73242 243.60059,168.14551 C 243.60059,183.84766 254.81446,192.43067 270.02149,192.43067 C 283.00196,192.43067 293.90626,183.84766 293.90626,169.68262 C 293.90625,152.42432 279.62402,144.36035 265.56641,139.35547 z M 271.78711,112.14551 C 282.23438,107.4668 290.83399,98.03955 290.83399,87.55127 C 290.83399,74.75439 283.00196,65.88281 268.71583,65.88281 C 257.73292,65.88281 245.52345,72.65332 245.52345,86.53076 C 245.52344,101.1958 260.11523,107.69824 271.78711,112.14551 z M 295.21094,122.63281 C 317.94727,133.35254 328.31348,148.53467 328.31348,168.14551 C 328.31348,200.55469 303.3545,218.08496 270.02149,218.08496 C 234.76856,218.08496 208.96485,202.65234 208.96485,170.76367 C 208.96485,150.61523 219.94776,135.95019 240.52881,126.01758 C 223.55762,117.89844 212.11426,103.52149 212.11426,85.47022 C 212.11426,61.93751 233.46192,40.73047 269.71485,40.73047 C 303.04883,40.73047 324.39649,56.69971 324.39649,81.8169 C 324.39648,100.36914 311.87988,116.87793 295.21094,122.63281 z "
   style="fill:#ffffff;fill-rule:evenodd"
   id="path15" />
			</g>
		</g>
	</svg>