<?xml version="1.0" encoding="UTF-8" standalone="no"?>
<!-- Created with Inkscape (http://www.inkscape.org/) -->
<svg
   xmlns:svg="http://www.w3.org/2000/svg"
   xmlns="http://www.w3.org/2000/svg"
   version="1.0"
   width="513.63818"
   height="257.38574"
   viewBox="0 0 513.63818 257.38574"
   id="svg2252"
   xml:space="preserve"><defs
   id="defs2266" />
	
		<g
   id="Ebene_1">
			<g
   id="g2257">
				<path
   d="M 128.66211,257.38574 L 385.31299,257.38574 C 456.17432,257.38574 513.63819,199.70996 513.63819,128.0166 C 513.63818,58.01465 456.17432,0 385.31299,0 L 128.66211,0 C 57.46338,0 0,58.01465 0,128.0166 C 0,199.70996 57.46338,257.38574 128.66211,257.38574 z "
   style="fill:#0a4c99"
   id="path2259" />
				<path
   d="M 216.12061,36.47803 L 212.66895,67.13184 C 203.56641,62.5708 187.55762,59.11182 174.33008,59.11182 C 161.77637,59.11182 145.17578,65.19141 145.17578,83.51465 C 145.17578,117.63135 227.2417,104.12012 227.2417,167.03223 C 227.2417,201.99219 198.42871,224.11621 157.2251,224.11621 C 136.32813,224.11621 127.22949,221.49512 108.94678,217.18945 L 112.31592,183.32715 C 124.02832,190.25391 140.62451,193.96777 154.95215,193.96777 C 168.9375,193.96777 188.40235,186.79004 188.40235,169.90332 C 188.40235,134.26416 105.74171,148.95947 105.74171,86.97705 C 105.74171,52.52295 130.93556,29.55664 171.54737,29.55664 C 187.55762,29.55664 202.9751,31.83496 216.12061,36.47803 z "
   style="fill:#ffffff"
   id="path2261" />
				<path
   d="M 281.84424,218.37402 L 284.11768,185.94824 C 297.26319,191.09668 310.99463,194.81152 325.9126,194.81152 C 340.99463,194.81152 365.59717,187.38281 365.59717,167.875 C 365.59717,145.75146 347.56494,138.31934 323.80322,138.31934 L 305.52002,138.31934 L 305.52002,109.01856 L 323.29834,109.01856 C 348.40576,109.01856 364.16553,100.15137 364.16553,83.51465 C 364.16553,65.4419 348.99756,59.11182 332.146,59.11182 C 317.31495,59.11182 303.24756,62.5708 290.43799,68.90479 L 287.57373,39.6045 C 303.24756,33.27003 320.68896,29.80714 340.14893,29.80714 C 363.57373,29.80714 401.9126,37.91359 401.9126,77.77296 C 401.9126,103.27247 385.90381,115.34864 367.6167,123.11769 L 367.6167,123.71046 C 391.0415,126.24317 403.0083,145.49659 403.0083,168.12599 C 403.0083,213.22072 362.479,224.11622 331.30518,224.11622 C 315.0415,224.11621 296.08057,222.08789 281.84424,218.37402 z "
   style="fill:#ffffff"
   id="path2263" />
			</g>
		</g>
	</svg>