<?xml version="1.0" encoding="UTF-8" standalone="no"?>
<!-- Created with Inkscape (http://www.inkscape.org/) -->
<svg
   xmlns:svg="http://www.w3.org/2000/svg"
   xmlns="http://www.w3.org/2000/svg"
   version="1.0"
   width="500"
   height="500"
   id="svg2">
  <defs
     id="defs4" />
  <g
     id="g3153">
    <path
       d="M 60.606062,53.030304 C 60.606062,67.375363 49.219364,79.00433 35.173161,79.00433 C 21.126957,79.00433 9.7402592,67.375363 9.7402592,53.030304 C 9.7402592,38.685245 21.126957,27.056278 35.173161,27.056278 C 49.219364,27.056278 60.606062,38.685245 60.606062,53.030304 L 60.606062,53.030304 z"
       transform="matrix(9.6229257,0,0,9.4224485,-88.46871,-249.67531)"
       id="path2384"
       style="opacity:1;fill:#ffffff;fill-opacity:1;fill-rule:nonzero;stroke:#ffffff;stroke-width:0;stroke-linejoin:round;stroke-miterlimit:4;stroke-dasharray:none;stroke-dashoffset:0;stroke-opacity:1" />
    <g
       transform="translate(-124.99999,-282.36217)"
       id="layer1">
      <path
         d="M 530.96544,727.09056 C 518.61233,731.51828 424.32729,729.55598 371.47722,713.67181 C 242.6438,674.95072 188.03985,698.09969 188.71925,698.44999 C 234.50268,749.59823 301.00643,781.86217 375.00001,781.86217 C 433.98426,781.86217 488.2424,761.35276 530.96544,727.09056 z M 553.7215,706.36522 C 506.77439,716.60935 450.5039,712.13823 401.70643,703.18706 C 354.10678,691.99951 300.55231,671.99455 270.35714,674.50504 L 298.92857,540.21932 L 467.14285,540.21932 L 478.92857,480.93318 L 311.07143,480.93318 L 328.21428,397.36218 L 500.71428,397.36218 L 511.42857,339.50504 L 270,339.50504 L 199.28571,673.07647 C 177.5,676.64789 174.84375,681.51396 174.76786,681.49928 C 143.87047,639.76479 125.49999,588.19576 125.49999,532.36218 C 125.49999,394.63817 237.276,282.86218 375.00001,282.86218 C 512.72399,282.86218 624.5,394.63817 624.5,532.36218 C 624.5,600.02229 597.49914,661.40668 553.7215,706.36522 z"
         id="path2396"
         style="fill:#0080c0;fill-opacity:1;fill-rule:evenodd;stroke:none;stroke-width:1px;stroke-linecap:butt;stroke-linejoin:miter;stroke-opacity:1" />
    </g>
  </g>
</svg>
