<?xml version="1.0" encoding="utf-8"?>
<!DOCTYPE svg PUBLIC "-//W3C//DTD SVG 1.1//EN" "http://www.w3.org/Graphics/SVG/1.1/DTD/svg11.dtd">
<svg version="1.1" id="Ebene_1" xmlns="http://www.w3.org/2000/svg" xmlns:xlink="http://www.w3.org/1999/xlink" x="0px" y="0px"
	 width="445.133px" height="267.389px" viewBox="0 0 445.133 267.389" enable-background="new 0 0 445.133 267.389"
	 xml:space="preserve">
<rect x="0.004" y="0.007" fill="#A6422A" width="445.129" height="267.125"/>
<polygon fill="#FFFFFF" points="155.127,213.914 155.127,89.493 154.693,89.493 118.592,213.914 97.018,213.914 62.688,89.493 
	62.254,89.493 62.254,213.914 32.632,213.914 32.632,57.428 82.224,57.428 108.707,164.833 109.141,164.833 137.194,57.428 
	185.216,57.428 185.216,213.914 "/>
<polygon fill="#FFFFFF" points="254.077,213.914 254.077,95.098 234.34,115.751 219.079,92.162 259.889,57.428 286.17,57.428 
	286.17,213.914 "/>
<polygon fill="#FFFFFF" points="362.178,213.914 326.28,213.914 376.974,83.454 316.161,83.454 316.161,57.428 408.598,57.428 
	408.598,86.79 "/>
</svg>
