<?xml version="1.0" encoding="utf-8"?>
<!DOCTYPE svg PUBLIC "-//W3C//DTD SVG 1.1//EN" "http://www.w3.org/Graphics/SVG/1.1/DTD/svg11.dtd">
<svg version="1.1" id="Ebene_1" xmlns="http://www.w3.org/2000/svg" xmlns:xlink="http://www.w3.org/1999/xlink" x="0px" y="0px"
	 width="322.826px" height="267.389px" viewBox="0 0 322.826 267.389" enable-background="new 0 0 322.826 267.389"
	 xml:space="preserve">
<rect x="0.003" y="0" fill="#8870AB" width="322.824" height="267.386"/>
<polygon fill="#FFFFFF" points="88.459,213.408 88.459,94.678 68.752,115.254 53.529,91.759 94.299,57.001 120.506,57.001 
	120.506,213.408 "/>
<path fill="#FFFFFF" d="M153.559,213.408v-26.241c11.436-10.74,23.323-24.4,35.87-40.736c5.805-8.098,10.74-15.918,14.528-23.286
	c3.58-7.646,5.387-14.354,5.631-20.159c-0.244-14.354-7.194-21.306-21.063-21.515c-5.805,0-11.227,1.078-16.127,3.545
	c-5.179,2.259-9.627,5.181-13.45,8.518l-2.467-29.578c11.226-6.048,25.304-9.178,42.333-9.384c12.998,0,23.529,3.578,31.596,10.946
	c7.853,7.438,11.885,17.937,12.095,31.596c-0.21,9.211-2.677,18.838-7.61,28.675c-4.9,10.321-10.982,19.951-17.69,28.918
	c-6.744,9.176-12.791,16.544-18.144,22.592c-5.599,5.84-8.969,9.663-10.08,10.774h55.088v25.338L153.559,213.408L153.559,213.408z"
	/>
</svg>
