<?xml version="1.0" encoding="utf-8"?>
<!DOCTYPE svg PUBLIC "-//W3C//DTD SVG 1.1//EN" "http://www.w3.org/Graphics/SVG/1.1/DTD/svg11.dtd">
<svg version="1.1" id="Ebene_1" xmlns="http://www.w3.org/2000/svg" xmlns:xlink="http://www.w3.org/1999/xlink" x="0px" y="0px"
	 width="445.133px" height="267.389px" viewBox="0 0 445.133 267.389" enable-background="new 0 0 445.133 267.389"
	 xml:space="preserve">
<rect y="0.001" fill="#005695" width="445.135" height="267.388"/>
<polygon fill="#FFFFFF" points="213.516,216.456 213.516,91.88 213.082,91.88 176.945,216.456 155.403,216.456 121.07,91.88 
	120.635,91.88 120.635,216.456 91.011,216.456 91.011,59.817 140.608,59.817 167.059,167.293 167.527,167.293 195.582,59.817 
	243.575,59.817 243.575,216.456 "/>
<path fill="#FFFFFF" d="M325.936,218.927c-20.006-0.468-33.465-8.116-40.846-22.912c-7.648-14.36-11.223-32.062-10.988-52.734
	c0-10.521,0.867-21.075,2.904-31.194c1.805-10.086,4.943-19.271,9.186-27.587c4.709-8.316,10.787-14.829,18.836-19.739
	c7.883-4.709,17.77-7.181,29.426-7.381c13.459,0.2,23.344,2.204,30.059,5.778l-1.805,26.051c-2.238-1.57-5.143-3.106-9.185-4.91
	c-4.274-1.603-8.983-2.271-14.36-2.271c-6.748,0-12.357,1.337-16.6,4.275c-4.51,2.906-7.85,6.713-10.555,11.689
	c-2.672,4.676-4.475,9.853-5.377,15.43c-1.369,5.645-1.803,11.489-1.803,17.1h0.434c2.939-4.942,6.746-8.783,11.256-10.987
	c4.676-2.271,9.617-3.373,15.229-3.373c12.793,0.199,22.678,4.91,29.859,14.36c6.746,9.418,10.086,21.977,10.32,37.673
	C371.024,201.193,355.76,218.025,325.936,218.927z M336.456,148.924c-2.705-4.976-6.945-7.447-12.558-7.647
	c-6.045,0.2-10.319,2.938-12.792,8.05c-2.672,5.377-4.041,11.688-4.041,19.538c0,7.181,1.369,13.492,4.273,18.436
	c2.474,5.11,6.713,7.815,12.357,8.049c5.578,0,9.854-2.672,12.76-8.314c2.504-5.145,3.605-11.424,3.605-19.037
	C340.063,160.114,338.961,153.834,336.456,148.924z"/>
</svg>
