<?xml version="1.0" encoding="utf-8"?>
<!DOCTYPE svg PUBLIC "-//W3C//DTD SVG 1.1//EN" "http://www.w3.org/Graphics/SVG/1.1/DTD/svg11.dtd">
<svg version="1.1" id="Ebene_1" xmlns="http://www.w3.org/2000/svg" xmlns:xlink="http://www.w3.org/1999/xlink" x="0px" y="0px"
	 width="322.826px" height="267.389px" viewBox="0 0 322.826 267.389" enable-background="new 0 0 322.826 267.389"
	 xml:space="preserve">
<rect x="0.005" y="0.041" fill="#009BD9" width="322.821" height="267.349"/>
<path fill="#FFFFFF" d="M104.831,219.531c-19.951-0.452-33.366-8.03-40.77-22.871c-7.612-14.32-11.191-32.013-10.982-52.587
	c0-10.565,0.902-21.099,2.919-31.178c1.807-10.08,4.935-19.221,9.176-27.526c4.692-8.308,10.774-14.842,18.803-19.741
	c7.855-4.692,17.726-7.16,29.37-7.369c13.451,0.209,23.287,2.19,30.03,5.805l-1.808,25.999c-2.258-1.563-5.143-3.128-9.175-4.936
	c-4.275-1.601-8.968-2.227-14.355-2.227c-6.708,0-12.338,1.321-16.579,4.241c-4.484,2.92-7.821,6.743-10.532,11.646
	c-2.676,4.69-4.448,9.87-5.387,15.467c-1.321,5.596-1.772,11.434-1.772,17.031h0.451c2.885-4.938,6.708-8.727,11.192-10.983
	c4.727-2.225,9.627-3.337,15.223-3.337c12.791,0.209,22.662,4.9,29.822,14.32c6.707,9.385,10.079,21.932,10.289,37.604
	C149.842,201.839,134.617,218.661,104.831,219.531z M115.363,149.668c-2.711-4.97-6.951-7.438-12.547-7.646
	c-6.049,0.209-10.323,2.887-12.756,8.064c-2.711,5.387-4.032,11.644-4.032,19.464c0,7.193,1.32,13.484,4.241,18.386
	c2.467,5.181,6.707,7.855,12.303,8.063c5.63,0,9.871-2.676,12.791-8.271c2.433-5.145,3.58-11.436,3.58-19.047
	C118.943,160.825,117.796,154.569,115.363,149.668z"/>
<path fill="#FFFFFF" d="M257.761,197.354c-7.82,14.563-20.611,21.934-38.267,22.178c-17.519-0.244-30.03-7.612-37.677-22.178
	c-7.82-14.562-11.646-34.062-11.401-58.461c-0.243-25.06,3.823-44.801,11.888-59.121c7.611-14.146,19.916-21.306,37.19-21.515
	c17.239,0.209,29.751,7.369,37.606,21.515c7.609,14.32,11.435,34.062,11.435,59.121
	C268.535,163.293,264.955,182.791,257.761,197.354z M232.91,94.301c-3.129-7.82-7.612-11.644-13.416-11.4
	c-2.92,0-5.422,0.904-7.646,2.469c-2.018,1.771-4.033,4.691-5.599,8.933c-3.128,8.098-4.69,23.079-4.69,44.593
	c0,21.517,1.562,36.251,4.69,44.353c3.164,7.818,7.404,11.852,13.243,11.644c5.804,0.208,10.287-3.823,13.416-11.644
	c2.92-8.102,4.482-22.836,4.482-44.353C237.394,117.38,235.83,102.398,232.91,94.301z"/>
</svg>
