<?xml version="1.0" encoding="utf-8"?>
<!DOCTYPE svg PUBLIC "-//W3C//DTD SVG 1.1//EN" "http://www.w3.org/Graphics/SVG/1.1/DTD/svg11.dtd">
<svg version="1.1" id="Ebene_1" xmlns="http://www.w3.org/2000/svg" xmlns:xlink="http://www.w3.org/1999/xlink" x="0px" y="0px"
	 width="322.826px" height="267.389px" viewBox="0 0 322.826 267.389" enable-background="new 0 0 322.826 267.389"
	 xml:space="preserve">
<rect x="0.069" y="0.051" fill="#CB621A" width="322.758" height="267.297"/>
<path fill="#FFFFFF" d="M60.568,216.231v-26.234c11.433-10.738,23.283-24.396,35.827-40.729
	c5.838-8.096,10.738-15.915,14.561-23.282c3.579-7.645,5.385-14.352,5.595-20.153c-0.209-14.354-7.16-21.304-21.024-21.513
	c-5.837,0-11.225,1.078-16.159,3.547c-5.144,2.259-9.626,5.178-13.415,8.514l-2.467-29.572c11.19-6.046,25.298-9.174,42.326-9.382
	c12.997,0,23.526,3.579,31.554,10.946c7.853,7.436,11.884,17.931,12.128,31.587c-0.244,9.209-2.711,18.834-7.61,28.669
	c-4.934,10.321-10.982,19.946-17.723,28.912c-6.707,9.175-12.754,16.541-18.104,22.588c-5.63,5.839-9,9.661-10.112,10.771h55.112
	v25.333H60.568z"/>
<polygon fill="#FFFFFF" points="217.499,216.231 181.671,216.231 232.303,85.884 171.594,85.884 171.594,59.856 263.856,59.856 
	263.856,89.22 "/>
</svg>
