<?xml version="1.0" encoding="utf-8"?>
<!DOCTYPE svg PUBLIC "-//W3C//DTD SVG 1.1//EN" "http://www.w3.org/Graphics/SVG/1.1/DTD/svg11.dtd">
<svg version="1.1" id="Ebene_1" xmlns="http://www.w3.org/2000/svg" xmlns:xlink="http://www.w3.org/1999/xlink" x="0px" y="0px"
	 width="322.826px" height="267.389px" viewBox="0 0 322.826 267.389" enable-background="new 0 0 322.826 267.389"
	 xml:space="preserve">
<rect x="0.009" y="0.021" fill="#D6AD00" width="322.817" height="267.347"/>
<polygon fill="#FFFFFF" points="88.428,213.46 88.428,94.732 68.722,115.307 53.499,91.812 94.267,57.056 120.474,57.056 
	120.474,213.46 "/>
<path fill="#FFFFFF" d="M236.907,204.041c-9.211,7.817-21.098,11.852-36.112,11.852c-15.432-0.21-27.528-4.482-36.042-12.999
	c-8.968-8.307-13.242-18.803-13.242-31.594c0-8.479,2.258-16.093,6.952-22.835c4.726-6.951,11.642-12.061,21.306-15.466
	c-16.371-7.82-24.678-20.368-24.678-38.06c0-11.435,3.823-20.854,11.227-28.466c7.611-7.818,19.257-11.643,34.932-11.852
	c14.354,0.208,25.544,4.031,33.367,11.643c7.646,7.368,11.677,16.822,11.677,28.224c-0.241,8.968-2.675,16.577-7.401,22.592
	c-4.689,6.117-10.982,11.018-18.805,14.84c3.579,1.079,7.16,2.433,10.948,4.241c3.581,1.771,6.744,4.273,9.872,7.192
	c3.16,2.888,5.596,6.468,7.4,10.705c1.809,4.484,2.678,9.663,2.678,15.467C250.776,184.994,246.05,196.428,236.907,204.041z
	 M213.378,153.192c-3.822-4.03-8.516-7.402-14.354-9.837l0,0c-10.74,5.807-16.336,14.737-16.336,26.832
	c0,6.743,1.771,12.13,5.354,15.918c3.128,4.241,7.612,6.291,13.45,6.291c5.804,0,10.288-2.258,13.45-6.531
	c2.885-3.997,4.24-9.387,4.24-15.678C218.938,163.514,217.166,157.884,213.378,153.192z M212.438,83.714
	c-2.434-3.544-6.463-5.352-11.853-5.595c-4.937,0-8.724,1.771-11.646,5.179c-2.918,3.336-4.481,8.028-4.481,13.868
	c0,5.387,1.563,10.322,4.69,14.317c3.13,4.275,7.402,7.646,13,10.08l0,0c4.274-2.642,7.646-6.013,10.08-10.08
	c2.709-3.995,4.03-8.444,4.03-13.866C216.262,92.264,215.149,87.537,212.438,83.714z"/>
</svg>
