<?xml version="1.0" encoding="utf-8"?>
<!DOCTYPE svg PUBLIC "-//W3C//DTD SVG 1.1//EN" "http://www.w3.org/Graphics/SVG/1.1/DTD/svg11.dtd">
<svg version="1.1" id="Ebene_1" xmlns="http://www.w3.org/2000/svg" xmlns:xlink="http://www.w3.org/1999/xlink" x="0px" y="0px"
	 width="322.826px" height="267.389px" viewBox="0 0 322.826 267.389" enable-background="new 0 0 322.826 267.389"
	 xml:space="preserve">
<rect x="0.618" y="0" fill="#BC90C1" width="322.205" height="267.39"/>
<path fill="#FFFFFF" d="M66.856,213.412V187.17c11.436-10.74,23.288-24.4,35.87-40.736c5.805-8.099,10.74-15.919,14.528-23.288
	c3.581-7.646,5.387-14.354,5.631-20.159c-0.244-14.354-7.195-21.307-21.099-21.515c-5.806,0-11.191,1.078-16.093,3.545
	c-5.179,2.259-9.662,5.181-13.451,8.519l-2.469-29.579c11.192-6.048,25.305-9.179,42.335-9.388c12.999,0,23.53,3.58,31.596,10.983
	c7.854,7.403,11.852,17.9,12.095,31.595c-0.243,9.179-2.676,18.807-7.612,28.677c-4.936,10.286-10.982,19.916-17.726,28.885
	c-6.709,9.176-12.756,16.544-18.109,22.661c-5.631,5.806-8.967,9.594-10.08,10.706h55.091v25.339L66.856,213.412L66.856,213.412z"/>
<polygon fill="#FFFFFF" points="210.823,213.412 210.823,94.679 191.115,115.256 175.89,91.76 216.662,57.037 242.868,57.037 
	242.868,213.412 "/>
</svg>
