<?xml version="1.0" encoding="utf-8"?>
<!DOCTYPE svg PUBLIC "-//W3C//DTD SVG 1.1//EN" "http://www.w3.org/Graphics/SVG/1.1/DTD/svg11.dtd">
<svg version="1.1" id="Ebene_1" xmlns="http://www.w3.org/2000/svg" xmlns:xlink="http://www.w3.org/1999/xlink" x="0px" y="0px"
	 width="322.826px" height="267.389px" viewBox="0 0 322.826 267.389" enable-background="new 0 0 322.826 267.389"
	 xml:space="preserve">
<rect x="-0.127" y="0" fill="#E30613" width="322.774" height="267.346"/>
<g>
	<path fill="#FFFFFF" d="M118.889,214.298c-19.947-0.453-33.396-8.027-40.798-22.834c-7.611-14.352-11.189-32.041-10.948-52.613
		c0-10.562,0.87-21.06,2.92-31.138c1.772-10.078,4.9-19.322,9.173-27.558c4.693-8.308,10.739-14.806,18.801-19.705
		c7.855-4.728,17.724-7.193,29.366-7.401c13.449,0.208,23.284,2.224,29.99,5.803l-1.807,25.995
		c-2.224-1.562-5.144-3.127-9.174-4.898c-4.241-1.636-8.931-2.261-14.319-2.261c-6.741,0-12.335,1.32-16.576,4.239
		c-4.482,2.919-7.854,6.742-10.53,11.642c-2.675,4.691-4.483,9.87-5.385,15.466c-1.355,5.629-1.772,11.434-1.772,17.027h0.417
		c2.918-4.935,6.741-8.723,11.224-10.979c4.692-2.259,9.627-3.336,15.222-3.336c12.789,0.208,22.624,4.897,29.817,14.315
		c6.707,9.382,10.078,21.962,10.286,37.638C163.894,196.608,148.672,213.428,118.889,214.298z M129.419,144.448
		c-2.71-4.973-6.95-7.438-12.545-7.646c-6.047,0.209-10.321,2.92-12.788,8.098c-2.676,5.354-4.032,11.607-4.032,19.461
		c0,7.16,1.355,13.449,4.274,18.352c2.468,5.178,6.708,7.854,12.303,8.098c5.595,0,9.869-2.711,12.788-8.307
		c2.433-5.178,3.58-11.436,3.58-19.045C132.999,155.6,131.852,149.344,129.419,144.448z"/>
	<polygon fill="#FFFFFF" points="212.894,211.865 212.894,93.152 193.188,113.725 177.933,90.233 218.697,55.481 244.901,55.481 
		244.901,211.865 	"/>
</g>
</svg>
