<?xml version="1.0" encoding="utf-8"?>
<!DOCTYPE svg PUBLIC "-//W3C//DTD SVG 1.1//EN" "http://www.w3.org/Graphics/SVG/1.1/DTD/svg11.dtd">
<svg version="1.1" id="Ebene_1" xmlns="http://www.w3.org/2000/svg" xmlns:xlink="http://www.w3.org/1999/xlink" x="0px" y="0px"
	 width="445.133px" height="267.389px" viewBox="0 0 445.133 267.389" enable-background="new 0 0 445.133 267.389"
	 xml:space="preserve">
<rect y="0" fill="#EE7203" width="445.133" height="267.389"/>
<polygon fill="#FFFFFF" points="206.52,214.137 206.52,89.563 206.086,89.563 169.951,214.137 148.411,214.137 114.08,89.563 
	113.646,89.563 113.646,214.137 84.024,214.137 84.024,57.493 133.617,57.493 160.067,164.964 160.534,164.964 188.587,57.493 
	236.575,57.493 236.575,214.137 "/>
<path fill="#FFFFFF" d="M351.692,204.718c-9.217,7.851-21.105,11.859-36.134,11.859c-15.496-0.2-27.587-4.443-36.134-12.995
	c-8.983-8.285-13.227-18.842-13.227-31.637c0-8.52,2.238-16.17,6.947-22.885c4.708-6.98,11.654-12.16,21.307-15.5
	c-16.363-7.851-24.68-20.412-24.68-38.149c0-11.459,3.839-20.88,11.221-28.529c7.646-7.851,19.303-11.66,34.998-11.893
	c14.36,0.232,25.582,4.042,33.43,11.691c7.647,7.383,11.688,16.836,11.688,28.262c-0.233,8.986-2.705,16.637-7.414,22.684
	c-4.708,6.047-10.987,10.991-18.868,14.799c3.605,1.136,7.18,2.473,11.021,4.276c3.572,1.805,6.746,4.274,9.852,7.183
	c3.174,2.906,5.645,6.515,7.413,10.79c1.806,4.443,2.705,9.621,2.705,15.468C365.584,185.642,360.875,197.1,351.692,204.718z
	 M328.116,153.74c-3.809-4.01-8.517-7.385-14.361-9.855l0,0c-10.754,5.847-16.396,14.832-16.396,26.926
	c0,6.715,1.805,12.127,5.41,15.968c3.141,4.243,7.613,6.248,13.459,6.248c5.844,0,10.318-2.238,13.458-6.515
	c2.938-4.042,4.274-9.421,4.274-15.701C333.725,164.094,331.956,158.449,328.116,153.74z M327.213,84.185
	c-2.473-3.606-6.514-5.411-11.891-5.61c-4.941,0-8.748,1.804-11.654,5.145c-2.938,3.374-4.508,8.084-4.508,13.93
	c0,5.378,1.568,10.323,4.741,14.365c3.104,4.275,7.382,7.616,12.991,10.123l0,0c4.275-2.74,7.646-6.114,10.085-10.123
	c2.705-4.042,4.073-8.552,4.073-13.93C331.053,92.671,329.918,87.993,327.213,84.185z"/>
</svg>
