<?xml version="1.0" encoding="utf-8"?>
<!DOCTYPE svg PUBLIC "-//W3C//DTD SVG 1.1//EN" "http://www.w3.org/Graphics/SVG/1.1/DTD/svg11.dtd">
<svg version="1.1" id="Ebene_1" xmlns="http://www.w3.org/2000/svg" xmlns:xlink="http://www.w3.org/1999/xlink" x="0px" y="0px"
	 width="322.826px" height="267.389px" viewBox="0 0 322.826 267.389" enable-background="new 0 0 322.826 267.389"
	 xml:space="preserve">
<rect x="0.023" y="0.045" fill="#65B32E" width="322.803" height="267.3"/>
<path fill="#FFFFFF" d="M107.241,215.874c-19.949-0.452-33.365-8.028-40.767-22.835c-7.612-14.354-11.191-32.044-10.948-52.618
	c0-10.566,0.869-21.062,2.885-31.141c1.807-10.079,4.935-19.254,9.209-27.561c4.693-8.307,10.739-14.806,18.802-19.707
	c7.821-4.727,17.69-7.194,29.334-7.402c13.45,0.208,23.321,2.225,30.028,5.804l-1.772,25.998c-2.259-1.564-5.179-3.128-9.21-4.9
	c-4.241-1.563-8.966-2.259-14.32-2.259c-6.742,0-12.337,1.32-16.577,4.24c-4.483,2.92-7.855,6.742-10.532,11.643
	c-2.71,4.692-4.482,9.871-5.386,15.466c-1.321,5.63-1.772,11.436-1.772,17.03h0.451c2.919-4.935,6.707-8.724,11.191-10.982
	c4.693-2.225,9.627-3.336,15.223-3.336c12.756,0.208,22.625,4.9,29.786,14.319c6.708,9.384,10.079,21.965,10.322,37.64
	C152.284,198.183,137.061,215.005,107.241,215.874z M117.773,146.016c-2.676-4.971-6.951-7.438-12.546-7.646
	c-6.048,0.208-10.288,2.92-12.755,8.098c-2.677,5.354-4.032,11.608-4.032,19.498c0,7.159,1.355,13.415,4.275,18.315
	c2.433,5.179,6.708,7.854,12.304,8.099c5.595,0,9.87-2.712,12.755-8.307c2.468-5.146,3.58-11.436,3.58-19.048
	C121.353,157.173,120.241,150.917,117.773,146.016z"/>
<path fill="#FFFFFF" d="M257.071,204.022c-9.209,7.854-21.062,11.853-36.076,11.853c-15.466-0.209-27.561-4.483-36.075-12.999
	c-8.933-8.236-13.207-18.802-13.207-31.593c0-8.479,2.258-16.092,6.951-22.833c4.69-6.917,11.642-12.062,21.271-15.433
	c-16.369-7.854-24.643-20.4-24.643-38.091c0-11.435,3.823-20.853,11.191-28.464c7.646-7.82,19.289-11.644,34.964-11.852
	c14.319,0.208,25.544,4.031,33.366,11.644c7.61,7.368,11.676,16.822,11.676,28.221c-0.241,8.967-2.709,16.579-7.402,22.591
	c-4.729,6.117-10.982,11.019-18.836,14.842c3.579,1.111,7.158,2.467,10.98,4.239c3.582,1.772,6.709,4.275,9.838,7.194
	c3.162,2.885,5.63,6.465,7.437,10.704c1.772,4.484,2.642,9.663,2.642,15.467C270.938,184.976,266.247,196.411,257.071,204.022z
	 M233.542,153.176c-3.788-4.031-8.516-7.403-14.32-9.836l0,0c-10.773,5.805-16.369,14.736-16.369,26.865
	c0,6.709,1.808,12.096,5.388,15.919c3.128,4.239,7.612,6.256,13.416,6.256c5.838,0,10.321-2.26,13.45-6.534
	c2.918-3.997,4.273-9.385,4.273-15.641C239.138,163.497,237.329,157.867,233.542,153.176z M232.638,83.7
	c-2.468-3.544-6.465-5.354-11.886-5.596c-4.899,0-8.723,1.843-11.608,5.18c-2.92,3.336-4.483,8.062-4.483,13.901
	c0,5.354,1.563,10.287,4.692,14.318c3.127,4.275,7.401,7.612,12.998,10.079l0,0c4.241-2.676,7.611-6.047,10.079-10.079
	c2.677-4.031,4.032-8.48,4.032-13.902C236.461,92.249,235.315,87.523,232.638,83.7z"/>
</svg>
