<?xml version="1.0" encoding="utf-8"?>
<!DOCTYPE svg PUBLIC "-//W3C//DTD SVG 1.1//EN" "http://www.w3.org/Graphics/SVG/1.1/DTD/svg11.dtd">
<svg version="1.1" id="Ebene_1" xmlns="http://www.w3.org/2000/svg" xmlns:xlink="http://www.w3.org/1999/xlink" x="0px" y="0px"
	 width="445.133px" height="267.389px" viewBox="0 0 445.133 267.389" enable-background="new 0 0 445.133 267.389"
	 xml:space="preserve">
<rect y="0" fill="#007B3D" width="445.133" height="267.422"/>
<polygon fill="#FFFFFF" points="155.091,211.773 155.091,87.214 154.656,87.214 118.555,211.773 96.982,211.773 62.651,87.214 
	62.217,87.214 62.217,211.773 32.594,211.773 32.594,55.115 82.187,55.115 108.67,162.637 109.138,162.637 137.157,55.115 
	185.18,55.115 185.18,211.773 "/>
<polygon fill="#FFFFFF" points="254.043,211.773 254.043,92.826 234.306,113.469 219.044,89.953 259.887,55.115 286.137,55.115 
	286.137,211.773 "/>
<path fill="#FFFFFF" d="M406.127,192.032c-7.848,14.597-20.639,21.979-38.373,22.213c-17.498-0.234-30.09-7.616-37.703-22.213
	c-7.848-14.564-11.655-34.139-11.455-58.589c-0.2-25.119,3.809-44.894,11.89-59.257c7.647-14.095,19.97-21.276,37.271-21.544
	c17.267,0.269,29.822,7.449,37.703,21.544c7.615,14.363,11.422,34.138,11.422,59.257
	C416.879,157.894,413.307,177.468,406.127,192.032z M381.213,88.818c-3.139-7.85-7.646-11.69-13.459-11.458
	c-2.938,0-5.375,0.901-7.646,2.473c-2.004,1.804-4.008,4.709-5.609,8.984c-3.141,8.051-4.711,23.081-4.711,44.626
	s1.57,36.375,4.711,44.458c3.172,7.851,7.414,11.858,13.258,11.658c5.812,0.2,10.318-3.809,13.459-11.658
	c2.904-8.083,4.509-22.913,4.509-44.458C385.723,111.899,384.12,96.867,381.213,88.818z"/>
</svg>
