<?xml version="1.0" encoding="utf-8"?>
<!DOCTYPE svg PUBLIC "-//W3C//DTD SVG 1.1//EN" "http://www.w3.org/Graphics/SVG/1.1/DTD/svg11.dtd">
<svg version="1.1" id="Ebene_1" xmlns="http://www.w3.org/2000/svg" xmlns:xlink="http://www.w3.org/1999/xlink" x="0px" y="0px"
	 width="322.826px" height="267.389px" viewBox="0 0 322.826 267.389" enable-background="new 0 0 322.826 267.389"
	 xml:space="preserve">
<rect x="0.071" y="0" fill="#007FAB" width="322.756" height="267.396"/>
<polygon fill="#FFFFFF" points="88.473,213.419 88.473,94.682 68.77,115.26 53.551,91.763 94.311,57.038 120.513,57.038 
	120.513,213.419 "/>
<path fill="#FFFFFF" d="M205.545,215.852c-19.946-0.453-33.396-8.028-40.761-22.838c-7.645-14.354-11.224-32.048-10.981-52.623
	c0-10.565,0.904-21.063,2.92-31.145c1.772-10.08,4.935-19.256,9.172-27.563c4.69-8.308,10.771-14.808,18.834-19.708
	c7.818-4.728,17.688-7.193,29.33-7.401c13.446,0.208,23.282,2.224,30.022,5.804l-1.808,26c-2.225-1.564-5.144-3.128-9.174-4.901
	c-4.274-1.562-8.966-2.259-14.353-2.259c-6.706,0-12.3,1.321-16.575,4.241c-4.482,2.92-7.854,6.744-10.495,11.644
	c-2.709,4.692-4.517,9.872-5.385,15.468c-1.354,5.633-1.808,11.438-1.808,17.032h0.451c2.918-4.936,6.74-8.724,11.188-10.982
	c4.69-2.227,9.626-3.337,15.221-3.337c12.788,0.209,22.655,4.899,29.815,14.319c6.707,9.385,10.078,21.967,10.285,37.645
	C250.581,198.159,235.325,214.982,205.545,215.852z M216.074,145.986c-2.677-4.971-6.95-7.438-12.545-7.646
	c-6.046,0.209-10.285,2.919-12.788,8.099c-2.676,5.354-3.996,11.609-3.996,19.499c0,7.161,1.32,13.417,4.238,18.318
	c2.468,5.179,6.707,7.854,12.338,8.099c5.594,0,9.833-2.711,12.752-8.307c2.467-5.146,3.58-11.438,3.58-19.049
	C219.654,157.144,218.542,150.886,216.074,145.986z"/>
</svg>
