<?xml version="1.0" encoding="utf-8"?>
<!DOCTYPE svg PUBLIC "-//W3C//DTD SVG 1.1//EN" "http://www.w3.org/Graphics/SVG/1.1/DTD/svg11.dtd">
<svg version="1.1" id="Ebene_1" xmlns="http://www.w3.org/2000/svg" xmlns:xlink="http://www.w3.org/1999/xlink" x="0px" y="0px"
	 width="322.826px" height="267.389px" viewBox="0 0 322.826 267.389" enable-background="new 0 0 322.826 267.389"
	 xml:space="preserve">
<rect x="-0.017" y="0" fill="#A6422A" width="322.793" height="267.327"/>
<path fill="#FFFFFF" d="M97.224,218.636c-8.966-0.209-16.334-1.077-22.416-2.433c-6.256-1.563-10.948-2.919-14.318-4.274
	l1.562-27.314l0,0c3.581,2.016,8.063,3.786,13.242,5.352c5.352,1.807,11.156,2.711,17.654,2.711c7.646,0,13.901-2.016,18.837-6.256
	c4.692-4.066,7.159-9.661,7.403-16.612c0-14.562-9.001-21.721-26.865-21.931H79.291v-23.771h8.757
	c9.175,0,16.579-1.562,22.139-4.898c5.629-3.336,8.549-8.517,8.549-15.709c0-6.951-2.469-12.061-6.951-15.433
	c-4.483-3.127-10.321-4.727-17.238-4.727c-10.079,0.242-19.497,2.71-28.463,7.61l-2.015-25.96
	c12.095-4.937,24.189-7.402,36.735-7.611c13.902-0.209,25.752,2.676,35.17,8.306c9.418,6.047,14.318,16.543,14.562,31.558
	c0,10.737-3.372,19.254-9.627,25.301c-6.046,6.082-12.998,9.871-21.06,10.98v0.451c1.772,0.209,3.788,0.452,5.838,0.904
	c1.772,0.451,3.58,1.146,5.352,1.771c3.823,1.564,7.194,3.823,10.322,6.742c3.128,2.92,5.803,6.465,7.819,10.982
	c2.016,4.689,2.92,10.287,2.92,16.785C151.44,202.094,133.056,217.768,97.224,218.636z"/>
<polygon fill="#FFFFFF" points="215.874,216.204 180.043,216.204 230.678,85.842 169.964,85.842 169.964,59.846 262.271,59.846 
	262.271,89.178 "/>
</svg>
