<?xml version="1.0" encoding="utf-8"?>
<!DOCTYPE svg PUBLIC "-//W3C//DTD SVG 1.1//EN" "http://www.w3.org/Graphics/SVG/1.1/DTD/svg11.dtd">
<svg version="1.1" id="Ebene_1" xmlns="http://www.w3.org/2000/svg" xmlns:xlink="http://www.w3.org/1999/xlink" x="0px" y="0px"
	 width="322.826px" height="267.389px" viewBox="0 0 322.826 267.389" enable-background="new 0 0 322.826 267.389"
	 xml:space="preserve">
<rect x="0.014" y="0" fill="#DD6CA6" width="322.811" height="267.362"/>
<path fill="#FFFFFF" d="M108.788,219.494c-19.953-0.452-33.373-8.065-40.777-22.807c-7.613-14.355-11.193-32.086-10.986-52.699
	c0-10.533,0.905-21.066,2.921-31.147c1.807-10.082,4.936-19.259,9.177-27.532C73.852,77,79.9,70.534,87.965,65.563
	c7.822-4.692,17.694-7.161,29.341-7.37c13.452,0.208,23.326,2.261,30.035,5.806l-1.807,26.003c-2.225-1.564-5.146-3.128-9.178-4.902
	c-4.242-1.599-8.968-2.294-14.323-2.294c-6.743,0-12.34,1.356-16.582,4.276c-4.519,2.92-7.856,6.744-10.533,11.646
	c-2.711,4.729-4.485,9.873-5.388,15.471c-1.356,5.596-1.808,11.437-1.808,17.033h0.452c2.919-4.972,6.744-8.726,11.193-10.984
	c4.729-2.226,9.665-3.373,15.227-3.373c12.793,0.244,22.666,4.937,29.827,14.356c6.709,9.387,10.082,21.937,10.289,37.647
	C153.842,201.8,138.58,218.625,108.788,219.494z M119.321,149.62c-2.676-4.973-6.953-7.404-12.55-7.647
	c-6.048,0.243-10.289,2.919-12.756,8.064c-2.712,5.389-4.033,11.646-4.033,19.536c0,7.161,1.321,13.42,4.241,18.32
	c2.468,5.181,6.709,7.855,12.342,8.1c5.597,0,9.837-2.711,12.757-8.309c2.468-5.146,3.581-11.437,3.581-19.05
	C122.902,160.813,121.789,154.521,119.321,149.62z"/>
<polygon fill="#FFFFFF" points="214.017,217.06 178.176,217.06 228.824,86.629 168.094,86.629 168.094,60.661 260.424,60.661 
	260.424,90.001 "/>
</svg>
