<?xml version="1.0" encoding="utf-8"?>
<!DOCTYPE svg PUBLIC "-//W3C//DTD SVG 1.1//EN" "http://www.w3.org/Graphics/SVG/1.1/DTD/svg11.dtd">
<svg version="1.1" id="Ebene_1" xmlns="http://www.w3.org/2000/svg" xmlns:xlink="http://www.w3.org/1999/xlink" x="0px" y="0px"
	 width="445.133px" height="267.389px" viewBox="0 0 445.133 267.389" enable-background="new 0 0 445.133 267.389"
	 xml:space="preserve">
<rect x="0.004" y="0" fill="#C8893B" width="445.129" height="267.366"/>
<polygon fill="#FFFFFF" points="206.504,211.769 206.504,87.252 206.071,87.252 169.933,211.769 148.392,211.769 114.059,87.252 
	113.624,87.252 113.624,211.769 84,211.769 84,55.163 133.596,55.163 160.048,162.617 160.516,162.617 188.57,55.163 
	236.562,55.163 236.562,211.769 "/>
<path fill="#FFFFFF" d="M345.84,199.882c-10.553,9.417-24.246,14.092-41.08,14.358c-8.75-0.268-15.696-1.135-21.307-2.472
	c-6.045-1.603-10.988-3.173-14.83-4.742l1.604-26.243c3.14,1.602,7.381,3.138,12.56,4.739c5.176,1.771,10.787,2.673,17.064,2.673
	c9.186,0,16.165-2.673,21.074-7.882c4.709-5.107,7.18-11.62,7.18-19.732c-0.232-9.651-3.139-16.598-8.982-20.87
	c-6.047-4.242-13.693-6.245-23.312-6.245c-5.178,0-9.652,0.434-13.493,1.334c-3.808,0.902-7.381,2.005-10.754,3.106V55.163h83.228
	v24.442h-54.938v32.323c4.042-1.335,9.185-2.07,15.698-2.07c13.691,0.269,24.88,4.542,33.431,13.023
	c8.315,8.782,12.558,20.669,12.791,35.462C361.538,176.541,356.395,190.432,345.84,199.882z"/>
</svg>
