<?xml version="1.0" encoding="utf-8"?>
<!DOCTYPE svg PUBLIC "-//W3C//DTD SVG 1.1//EN" "http://www.w3.org/Graphics/SVG/1.1/DTD/svg11.dtd">
<svg version="1.1" id="Ebene_1" xmlns="http://www.w3.org/2000/svg" xmlns:xlink="http://www.w3.org/1999/xlink" x="0px" y="0px"
	 width="445.133px" height="267.389px" viewBox="0 0 445.133 267.389" enable-background="new 0 0 445.133 267.389"
	 xml:space="preserve">
<rect x="0.004" y="0" fill="#00A092" width="445.129" height="267.382"/>
<polygon fill="#FFFFFF" points="159.768,214.086 159.768,89.595 159.334,89.595 123.234,214.086 101.66,214.086 67.329,89.595 
	66.895,89.595 66.895,214.086 37.273,214.086 37.273,57.47 86.866,57.47 113.348,164.964 113.783,164.964 141.835,57.47 
	189.858,57.47 189.858,214.086 "/>
<polygon fill="#FFFFFF" points="258.719,214.086 258.719,95.172 238.982,115.842 223.721,92.266 264.532,57.47 290.813,57.47 
	290.813,214.086 "/>
<path fill="#FFFFFF" d="M358.306,216.557c-8.983-0.2-16.397-1.136-22.44-2.472c-6.279-1.569-10.988-2.905-14.361-4.24l1.568-27.383
	l0,0c3.573,2.036,8.082,3.84,13.26,5.376c5.375,1.804,11.187,2.738,17.699,2.738c7.646,0,13.926-2.07,18.866-6.312
	c4.711-4.041,7.183-9.649,7.416-16.63c0-14.56-8.983-21.739-26.95-21.938h-13.025v-23.811h8.75c9.219,0,16.631-1.569,22.242-4.909
	c5.576-3.406,8.516-8.549,8.516-15.762c0-6.912-2.471-12.088-6.947-15.428c-4.507-3.172-10.354-4.708-17.297-4.708
	c-10.087,0.2-19.504,2.671-28.488,7.58l-2.035-25.981c12.155-4.94,24.244-7.413,36.801-7.646
	c13.927-0.234,25.816,2.705,35.232,8.313c9.418,6.045,14.359,16.597,14.596,31.625c0,10.785-3.373,19.269-9.652,25.346
	c-6.045,6.044-12.99,9.885-21.071,11.021v0.4c1.769,0.267,3.806,0.467,5.81,0.935c1.804,0.467,3.607,1.135,5.377,1.803
	c3.842,1.57,7.182,3.773,10.354,6.713c3.104,2.904,5.812,6.513,7.85,11.021c2.004,4.676,2.904,10.317,2.904,16.797
	C412.606,199.961,394.206,215.689,358.306,216.557z"/>
</svg>
