<?xml version="1.0" encoding="utf-8"?>
<!DOCTYPE svg PUBLIC "-//W3C//DTD SVG 1.1//EN" "http://www.w3.org/Graphics/SVG/1.1/DTD/svg11.dtd">
<svg version="1.1" id="Ebene_1" xmlns="http://www.w3.org/2000/svg" xmlns:xlink="http://www.w3.org/1999/xlink" x="0px" y="0px"
	 width="322.826px" height="267.389px" viewBox="0 0 322.826 267.389" enable-background="new 0 0 322.826 267.389"
	 xml:space="preserve">
<rect x="0.073" y="0.073" fill="#EE7203" width="322.754" height="267.294"/>
<path fill="#FFFFFF" d="M107.31,215.903c-19.945-0.418-33.394-8.062-40.761-22.865c-7.645-14.316-11.225-32.004-11.016-52.611
	c0-10.528,0.939-21.058,2.919-31.135c1.808-10.078,4.935-19.251,9.174-27.521c4.726-8.305,10.772-14.803,18.834-19.737
	c7.819-4.727,17.688-7.158,29.329-7.367c13.448,0.208,23.317,2.225,30.024,5.837l-1.772,25.959c-2.26-1.564-5.178-3.127-9.21-4.97
	c-4.239-1.529-8.965-2.188-14.316-2.188c-6.706,0-12.336,1.354-16.576,4.239c-4.482,2.919-7.853,6.707-10.529,11.641
	c-2.711,4.691-4.483,9.869-5.386,15.464c-1.32,5.595-1.772,11.434-1.772,17.027h0.452c2.884-4.934,6.706-8.756,11.155-10.981
	c4.726-2.259,9.661-3.335,15.255-3.335c12.752,0.208,22.622,4.899,29.78,14.316c6.742,9.382,10.078,21.927,10.32,37.634
	C152.311,198.215,137.091,215,107.31,215.903z M117.804,146.021c-2.675-4.899-6.916-7.401-12.51-7.609
	c-6.08,0.208-10.32,2.919-12.788,8.062c-2.675,5.353-4.031,11.676-4.031,19.46c0,7.193,1.355,13.483,4.239,18.383
	c2.501,5.179,6.742,7.889,12.336,8.098c5.596,0,9.835-2.711,12.753-8.306c2.502-5.179,3.58-11.434,3.58-19.009
	C121.384,157.211,120.306,150.956,117.804,146.021z"/>
<path fill="#FFFFFF" d="M207.11,215.903c-8.93-0.209-16.331-1.112-22.377-2.467c-6.291-1.563-10.981-2.92-14.353-4.274l1.563-27.312
	l0,0c3.615,2.05,8.062,3.822,13.24,5.386c5.352,1.772,11.188,2.677,17.688,2.677c7.609,0,13.9-1.98,18.799-6.255
	c4.727-4.031,7.159-9.626,7.402-16.575c0-14.562-8.965-21.719-26.896-21.928h-12.961v-23.77h8.723c9.172,0,16.574-1.563,22.17-4.899
	c5.596-3.405,8.514-8.514,8.514-15.673c0-6.949-2.467-12.127-6.95-15.499c-4.483-3.127-10.286-4.656-17.235-4.656
	c-10.078,0.209-19.494,2.677-28.425,7.575l-2.051-25.958c12.128-4.97,24.22-7.401,36.729-7.61
	c13.899-0.278,25.783,2.641,35.166,8.27c9.418,6.047,14.352,16.576,14.596,31.553c0,10.772-3.371,19.286-9.66,25.333
	c-6.046,6.048-12.996,9.869-21.023,10.981v0.452c1.773,0.208,3.786,0.417,5.803,0.903c1.771,0.417,3.58,1.076,5.354,1.771
	c3.822,1.564,7.191,3.823,10.319,6.742c3.127,2.919,5.838,6.463,7.854,10.946c1.981,4.726,2.919,10.284,2.919,16.818
	C261.32,199.363,242.974,215,207.11,215.903z"/>
</svg>
