<?xml version="1.0" encoding="utf-8"?>
<!DOCTYPE svg PUBLIC "-//W3C//DTD SVG 1.1//EN" "http://www.w3.org/Graphics/SVG/1.1/DTD/svg11.dtd">
<svg version="1.1" id="Ebene_1" xmlns="http://www.w3.org/2000/svg" xmlns:xlink="http://www.w3.org/1999/xlink" x="0px" y="0px"
	 width="445.133px" height="267.387px" viewBox="0 0 445.133 267.387" enable-background="new 0 0 445.133 267.387"
	 xml:space="preserve">
<rect fill="#7AB929" width="445.133" height="267.387"/>
<polygon fill="#FFFFFF" points="206.536,216.422 206.536,91.879 206.102,91.879 169.964,216.422 148.422,216.422 114.089,91.879 
	113.655,91.879 113.655,216.422 84.03,216.422 84.03,59.783 133.627,59.783 160.079,167.293 160.546,167.293 188.567,59.783 
	236.594,59.783 236.594,216.422 "/>
<path fill="#FFFFFF" d="M269.125,216.422v-26.285c11.455-10.754,23.346-24.447,35.902-40.812
	c5.846-8.082,10.787-15.964,14.596-23.346c3.574-7.648,5.377-14.361,5.61-20.206C325,91.411,318.053,84.498,304.125,84.23
	c-5.844,0-11.221,1.136-16.131,3.607c-5.178,2.238-9.687,5.177-13.459,8.517l-2.507-29.59c11.224-6.079,25.351-9.218,42.416-9.452
	c13.024,0,23.581,3.574,31.662,11.022c7.849,7.381,11.89,17.935,12.09,31.594c-0.2,9.251-2.704,18.871-7.614,28.723
	c-4.943,10.354-10.988,20.006-17.734,28.99c-6.746,9.184-12.791,16.6-18.168,22.678c-5.611,5.777-8.984,9.618-10.086,10.754h55.207
	v25.35H269.125L269.125,216.422z"/>
</svg>
