<?xml version="1.0" encoding="utf-8"?>
<!DOCTYPE svg PUBLIC "-//W3C//DTD SVG 1.1//EN" "http://www.w3.org/Graphics/SVG/1.1/DTD/svg11.dtd">
<svg version="1.1" id="Ebene_1" xmlns="http://www.w3.org/2000/svg" xmlns:xlink="http://www.w3.org/1999/xlink" x="0px" y="0px"
	 width="322.826px" height="267.389px" viewBox="0 0 322.826 267.389" enable-background="new 0 0 322.826 267.389"
	 xml:space="preserve">
<rect x="0.067" y="0.028" fill="#00512D" width="322.76" height="267.334"/>
<path fill="#FFFFFF" d="M107.27,215.827c-19.946-0.452-33.36-8.027-40.762-22.831c-7.61-14.353-11.189-32.04-10.946-52.611
	c0-10.563,0.869-21.06,2.885-31.137c1.807-10.078,4.934-19.25,9.208-27.557c4.692-8.306,10.738-14.804,18.799-19.703
	c7.82-4.727,17.688-7.193,29.331-7.401c13.448,0.208,23.317,2.225,30.023,5.803l-1.772,25.994c-2.259-1.564-5.178-3.128-9.209-4.9
	c-4.24-1.562-8.965-2.259-14.317-2.259c-6.741,0-12.335,1.32-16.575,4.239c-4.483,2.919-7.854,6.742-10.531,11.641
	c-2.71,4.691-4.482,9.87-5.385,15.464c-1.321,5.63-1.772,11.434-1.772,17.028h0.451c2.919-4.934,6.706-8.722,11.188-10.98
	c4.692-2.225,9.626-3.336,15.221-3.336c12.754,0.208,22.622,4.899,29.782,14.316c6.706,9.382,10.078,21.961,10.32,37.635
	C152.307,198.139,137.086,214.959,107.27,215.827z M117.8,145.979c-2.675-4.97-6.95-7.437-12.545-7.646
	c-6.046,0.209-10.286,2.92-12.753,8.097c-2.676,5.353-4.032,11.606-4.032,19.495c0,7.159,1.355,13.414,4.275,18.313
	c2.432,5.178,6.707,7.854,12.302,8.097c5.594,0,9.868-2.711,12.753-8.305c2.468-5.145,3.58-11.435,3.58-19.045
	C121.38,157.134,120.268,150.879,117.8,145.979z"/>
<path fill="#FFFFFF" d="M170.377,213.394v-26.235c11.433-10.738,23.283-24.396,35.862-40.729
	c5.804-8.097,10.738-15.915,14.525-23.283c3.613-7.645,5.385-14.352,5.629-20.154c-0.244-14.352-7.158-21.302-21.059-21.511
	c-5.837,0-11.189,1.077-16.125,3.544c-5.145,2.26-9.661,5.179-13.449,8.515l-2.467-29.572c11.189-6.047,25.298-9.174,42.326-9.383
	c12.997,0,23.527,3.579,31.588,10.98c7.854,7.402,11.85,17.896,12.094,31.588c-0.244,9.175-2.677,18.801-7.611,28.67
	c-4.934,10.285-10.98,19.91-17.723,28.877c-6.707,9.175-12.719,16.541-18.104,22.656c-5.631,5.805-8.967,9.593-10.077,10.703h55.078
	v25.333L170.377,213.394L170.377,213.394z"/>
</svg>
