<?xml version="1.0" encoding="utf-8"?>
<!DOCTYPE svg PUBLIC "-//W3C//DTD SVG 1.1//EN" "http://www.w3.org/Graphics/SVG/1.1/DTD/svg11.dtd">
<svg version="1.1" id="Ebene_1" xmlns="http://www.w3.org/2000/svg" xmlns:xlink="http://www.w3.org/1999/xlink" x="0px" y="0px"
	 width="322.826px" height="267.389px" viewBox="0 0 322.826 267.389" enable-background="new 0 0 322.826 267.389"
	 xml:space="preserve">
<rect x="0.35" y="0" fill="#EB9000" width="322.422" height="267.323"/>
<path fill="#FFFFFF" d="M133.075,201.5c-10.528,9.454-24.188,14.145-40.974,14.354c-8.724-0.209-15.674-1.077-21.303-2.433
	c-6.013-1.563-10.947-3.162-14.771-4.729l1.564-26.2c3.128,1.562,7.401,3.128,12.546,4.688c5.146,1.811,10.738,2.711,17.028,2.711
	c9.176,0,16.125-2.711,21.062-7.854c4.69-5.146,7.158-11.607,7.158-19.705c-0.208-9.627-3.128-16.577-8.967-20.817
	c-6.047-4.239-13.658-6.29-23.284-6.29c-5.144,0-9.626,0.451-13.449,1.355c-3.823,0.9-7.403,1.979-10.739,3.128V57.065h83.095
	v24.434H87.167v32.217c4.032-1.321,9.176-1.981,15.674-1.981c13.658,0.208,24.85,4.483,33.362,12.965
	c8.307,8.759,12.582,20.607,12.79,35.38C148.785,178.215,143.606,192.116,133.075,201.5z"/>
<path fill="#FFFFFF" d="M258.259,193.715c-7.854,14.527-20.645,21.93-38.3,22.139c-17.515-0.209-30.024-7.608-37.672-22.139
	c-7.82-14.562-11.606-34.058-11.397-58.489c-0.209-25.057,3.821-44.797,11.885-59.116c7.576-14.106,19.914-21.304,37.187-21.512
	c17.238,0.208,29.75,7.403,37.604,21.512C265.211,90.428,269,110.171,269,135.226C268.996,159.657,265.417,179.153,258.259,193.715z
	 M233.374,90.636c-3.127-7.784-7.609-11.605-13.415-11.397c-2.918,0-5.386,0.902-7.646,2.469c-2.017,1.771-4.03,4.689-5.597,8.931
	c-3.127,8.098-4.688,23.077-4.688,44.589c0,21.516,1.562,36.282,4.688,44.349c3.163,7.889,7.402,11.851,13.24,11.642
	c5.805,0.209,10.288-3.753,13.415-11.642c2.919-8.063,4.482-22.833,4.482-44.349C237.858,113.713,236.293,98.735,233.374,90.636z"/>
</svg>
